<svg width="3000" height="750" viewBox="0 0 3000 750" fill="none" xmlns="http://www.w3.org/2000/svg">
<rect width="3000" height="750" rx="50" fill="#003425"/>
<path d="M146.768 357.792C143.355 357.792 140.709 356.853 138.832 354.976C137.125 352.928 136.272 350.197 136.272 346.784V186.272C136.272 182.688 137.211 180.043 139.088 178.336C140.965 176.459 143.611 175.52 147.024 175.52H207.696C226.981 175.52 241.829 180.299 252.24 189.856C262.651 199.243 267.856 212.555 267.856 229.792C267.856 246.859 262.651 260.171 252.24 269.728C241.829 279.285 226.981 284.064 207.696 284.064H157.264V346.784C157.264 350.197 156.411 352.928 154.704 354.976C152.997 356.853 150.352 357.792 146.768 357.792ZM157.264 266.4H205.136C218.96 266.4 229.371 263.328 236.368 257.184C243.536 250.869 247.12 241.739 247.12 229.792C247.12 217.675 243.536 208.544 236.368 202.4C229.371 196.085 218.96 192.928 205.136 192.928H157.264V266.4ZM303.452 357.792C300.039 357.792 297.393 356.853 295.516 354.976C293.809 353.099 292.956 350.453 292.956 347.04V240.288C292.956 236.875 293.809 234.315 295.516 232.608C297.223 230.731 299.697 229.792 302.94 229.792C306.183 229.792 308.657 230.731 310.364 232.608C312.241 234.315 313.18 236.875 313.18 240.288V261.024H310.62C313.351 250.955 318.556 243.189 326.236 237.728C333.916 232.267 343.388 229.365 354.652 229.024C357.212 228.853 359.26 229.451 360.796 230.816C362.332 232.011 363.185 234.144 363.356 237.216C363.527 240.117 362.844 242.421 361.308 244.128C359.772 245.835 357.383 246.859 354.14 247.2L350.044 247.712C338.439 248.736 329.479 252.491 323.164 258.976C317.02 265.291 313.948 273.995 313.948 285.088V347.04C313.948 350.453 313.009 353.099 311.132 354.976C309.425 356.853 306.865 357.792 303.452 357.792ZM428.738 358.304C418.669 358.304 410.306 356.512 403.65 352.928C397.165 349.173 392.215 343.627 388.802 336.288C385.559 328.949 383.938 319.819 383.938 308.896V240.288C383.938 236.704 384.791 234.059 386.498 232.352C388.375 230.645 390.935 229.792 394.178 229.792C397.591 229.792 400.151 230.645 401.858 232.352C403.735 234.059 404.674 236.704 404.674 240.288V308.64C404.674 319.563 406.893 327.755 411.33 333.216C415.938 338.507 423.106 341.152 432.834 341.152C443.415 341.152 452.034 337.568 458.69 330.4C465.346 323.232 468.674 313.845 468.674 302.24V240.288C468.674 236.704 469.527 234.059 471.234 232.352C473.111 230.645 475.757 229.792 479.17 229.792C482.413 229.792 484.887 230.645 486.594 232.352C488.471 234.059 489.41 236.704 489.41 240.288V347.04C489.41 354.208 486.082 357.792 479.426 357.792C476.183 357.792 473.623 356.853 471.746 354.976C470.039 353.099 469.186 350.453 469.186 347.04V323.744L472.514 327.328C469.101 337.397 463.469 345.077 455.618 350.368C447.938 355.659 438.978 358.304 428.738 358.304ZM538.446 357.792C535.033 357.792 532.473 356.853 530.766 354.976C529.059 353.099 528.206 350.453 528.206 347.04V240.288C528.206 236.875 529.059 234.315 530.766 232.608C532.473 230.731 534.947 229.792 538.19 229.792C541.433 229.792 543.907 230.731 545.614 232.608C547.491 234.315 548.43 236.875 548.43 240.288V262.304L545.614 259.232C549.198 249.333 555.001 241.909 563.022 236.96C571.214 231.84 580.601 229.28 591.182 229.28C601.081 229.28 609.273 231.072 615.758 234.656C622.414 238.24 627.363 243.701 630.606 251.04C633.849 258.208 635.47 267.339 635.47 278.432V347.04C635.47 350.453 634.531 353.099 632.654 354.976C630.947 356.853 628.473 357.792 625.23 357.792C621.817 357.792 619.171 356.853 617.294 354.976C615.587 353.099 614.734 350.453 614.734 347.04V279.712C614.734 268.107 612.43 259.659 607.822 254.368C603.385 248.907 596.217 246.176 586.318 246.176C574.883 246.176 565.753 249.76 558.926 256.928C552.27 263.925 548.942 273.312 548.942 285.088V347.04C548.942 354.208 545.443 357.792 538.446 357.792ZM729.77 358.304C716.629 358.304 705.279 355.744 695.722 350.624C686.335 345.333 678.997 337.909 673.706 328.352C668.586 318.795 666.026 307.36 666.026 294.048C666.026 281.077 668.586 269.813 673.706 260.256C678.826 250.528 685.823 242.933 694.698 237.472C703.743 232.011 714.154 229.28 725.93 229.28C734.293 229.28 741.802 230.731 748.458 233.632C755.114 236.363 760.746 240.373 765.354 245.664C770.133 250.955 773.717 257.355 776.106 264.864C778.666 272.373 779.946 280.821 779.946 290.208C779.946 292.939 779.178 294.987 777.642 296.352C776.106 297.547 773.887 298.144 770.986 298.144H681.898V284.576H766.122L762.026 287.904C762.026 278.688 760.661 270.923 757.93 264.608C755.199 258.123 751.189 253.173 745.898 249.76C740.778 246.347 734.293 244.64 726.442 244.64C717.738 244.64 710.314 246.688 704.17 250.784C698.197 254.709 693.674 260.256 690.602 267.424C687.53 274.421 685.994 282.613 685.994 292V293.536C685.994 309.237 689.749 321.184 697.258 329.376C704.938 337.568 715.775 341.664 729.77 341.664C735.573 341.664 741.29 340.896 746.922 339.36C752.725 337.824 758.357 335.264 763.818 331.68C766.207 330.144 768.341 329.461 770.218 329.632C772.266 329.632 773.887 330.229 775.082 331.424C776.277 332.448 777.045 333.813 777.386 335.52C777.898 337.056 777.727 338.763 776.874 340.64C776.191 342.517 774.741 344.139 772.522 345.504C766.89 349.6 760.234 352.757 752.554 354.976C744.874 357.195 737.279 358.304 729.77 358.304ZM857.316 358.304C846.223 358.304 836.495 355.659 828.132 350.368C819.94 345.077 813.54 337.653 808.932 328.096C804.495 318.368 802.276 306.933 802.276 293.792C802.276 280.48 804.495 269.045 808.932 259.488C813.54 249.76 819.94 242.336 828.132 237.216C836.495 231.925 846.223 229.28 857.316 229.28C868.58 229.28 878.223 232.096 886.244 237.728C894.265 243.36 899.641 250.955 902.372 260.512H899.556V184.224C899.556 180.811 900.409 178.251 902.116 176.544C903.993 174.667 906.639 173.728 910.052 173.728C913.295 173.728 915.769 174.667 917.476 176.544C919.353 178.251 920.292 180.811 920.292 184.224V347.04C920.292 350.453 919.439 353.099 917.732 354.976C916.025 356.853 913.465 357.792 910.052 357.792C906.809 357.792 904.249 356.853 902.372 354.976C900.665 353.099 899.812 350.453 899.812 347.04V322.72L902.628 326.304C899.897 336.032 894.436 343.797 886.244 349.6C878.223 355.403 868.58 358.304 857.316 358.304ZM861.668 341.664C869.348 341.664 876.089 339.787 881.892 336.032C887.695 332.277 892.132 326.816 895.204 319.648C898.447 312.48 900.068 303.861 900.068 293.792C900.068 278.261 896.569 266.4 889.572 258.208C882.745 250.016 873.444 245.92 861.668 245.92C853.817 245.92 846.991 247.797 841.188 251.552C835.556 255.136 831.119 260.512 827.876 267.68C824.804 274.677 823.268 283.381 823.268 293.792C823.268 309.152 826.767 321.013 833.764 329.376C840.761 337.568 850.063 341.664 861.668 341.664Z" fill="white"/>
<path d="M130.384 576.896C128.677 576.896 127.355 576.427 126.416 575.488C125.563 574.464 125.136 573.099 125.136 571.392V491.136C125.136 489.344 125.605 488.021 126.544 487.168C127.483 486.229 128.805 485.76 130.512 485.76H160.848C170.491 485.76 177.915 488.149 183.12 492.928C188.325 497.621 190.928 504.277 190.928 512.896C190.928 521.429 188.325 528.085 183.12 532.864C177.915 537.643 170.491 540.032 160.848 540.032H135.632V571.392C135.632 573.099 135.205 574.464 134.352 575.488C133.499 576.427 132.176 576.896 130.384 576.896ZM135.632 531.2H159.568C166.48 531.2 171.685 529.664 175.184 526.592C178.768 523.435 180.56 518.869 180.56 512.896C180.56 506.837 178.768 502.272 175.184 499.2C171.685 496.043 166.48 494.464 159.568 494.464H135.632V531.2ZM208.726 576.896C207.019 576.896 205.697 576.427 204.758 575.488C203.905 574.549 203.478 573.227 203.478 571.52V518.144C203.478 516.437 203.905 515.157 204.758 514.304C205.611 513.365 206.849 512.896 208.47 512.896C210.091 512.896 211.329 513.365 212.182 514.304C213.121 515.157 213.59 516.437 213.59 518.144V528.512H212.31C213.675 523.477 216.278 519.595 220.118 516.864C223.958 514.133 228.694 512.683 234.326 512.512C235.606 512.427 236.63 512.725 237.398 513.408C238.166 514.005 238.593 515.072 238.678 516.608C238.763 518.059 238.422 519.211 237.654 520.064C236.886 520.917 235.691 521.429 234.07 521.6L232.022 521.856C226.219 522.368 221.739 524.245 218.582 527.488C215.51 530.645 213.974 534.997 213.974 540.544V571.52C213.974 573.227 213.505 574.549 212.566 575.488C211.713 576.427 210.433 576.896 208.726 576.896ZM274.459 577.152C268.4 577.152 263.152 575.829 258.715 573.184C254.278 570.539 250.822 566.827 248.347 562.048C245.958 557.184 244.763 551.467 244.763 544.896C244.763 539.947 245.446 535.509 246.811 531.584C248.176 527.573 250.182 524.16 252.827 521.344C255.472 518.528 258.587 516.395 262.171 514.944C265.84 513.408 269.936 512.64 274.459 512.64C280.518 512.64 285.766 513.963 290.203 516.608C294.64 519.253 298.054 523.008 300.443 527.872C302.918 532.651 304.155 538.325 304.155 544.896C304.155 549.845 303.472 554.283 302.107 558.208C300.742 562.133 298.736 565.547 296.091 568.448C293.446 571.264 290.288 573.44 286.619 574.976C283.035 576.427 278.982 577.152 274.459 577.152ZM274.459 568.832C278.299 568.832 281.67 567.893 284.571 566.016C287.472 564.139 289.691 561.408 291.227 557.824C292.848 554.24 293.659 549.931 293.659 544.896C293.659 537.131 291.91 531.2 288.411 527.104C284.998 523.008 280.347 520.96 274.459 520.96C270.534 520.96 267.12 521.899 264.219 523.776C261.403 525.568 259.184 528.256 257.563 531.84C256.027 535.339 255.259 539.691 255.259 544.896C255.259 552.576 257.008 558.507 260.507 562.688C264.006 566.784 268.656 568.832 274.459 568.832ZM342.021 576.896C340.57 576.896 339.29 576.512 338.181 575.744C337.072 574.891 336.133 573.611 335.365 571.904L313.221 520.192C312.624 518.912 312.41 517.717 312.581 516.608C312.752 515.499 313.264 514.603 314.117 513.92C314.97 513.237 316.165 512.896 317.701 512.896C319.066 512.896 320.133 513.195 320.901 513.792C321.669 514.389 322.352 515.456 322.949 516.992L343.941 568.32H340.485L361.861 516.992C362.458 515.456 363.141 514.389 363.909 513.792C364.677 513.195 365.786 512.896 367.237 512.896C368.602 512.896 369.626 513.237 370.309 513.92C371.077 514.603 371.504 515.499 371.589 516.608C371.76 517.632 371.589 518.784 371.077 520.064L348.677 571.904C348.08 573.611 347.184 574.891 345.989 575.744C344.88 576.512 343.557 576.896 342.021 576.896ZM389.848 576.64C388.141 576.64 386.861 576.171 386.008 575.232C385.155 574.208 384.728 572.8 384.728 571.008V518.656C384.728 516.864 385.155 515.499 386.008 514.56C386.861 513.621 388.141 513.152 389.848 513.152C391.469 513.152 392.749 513.621 393.688 514.56C394.627 515.499 395.096 516.864 395.096 518.656V571.008C395.096 572.8 394.627 574.208 393.688 575.232C392.835 576.171 391.555 576.64 389.848 576.64ZM389.848 498.816C387.715 498.816 386.051 498.261 384.856 497.152C383.661 495.957 383.064 494.379 383.064 492.416C383.064 490.368 383.661 488.832 384.856 487.808C386.051 486.699 387.715 486.144 389.848 486.144C392.067 486.144 393.731 486.699 394.84 487.808C396.035 488.832 396.632 490.368 396.632 492.416C396.632 494.379 396.035 495.957 394.84 497.152C393.731 498.261 392.067 498.816 389.848 498.816ZM438.158 577.152C432.611 577.152 427.747 575.829 423.566 573.184C419.47 570.539 416.27 566.827 413.966 562.048C411.747 557.184 410.638 551.467 410.638 544.896C410.638 538.24 411.747 532.523 413.966 527.744C416.27 522.88 419.47 519.168 423.566 516.608C427.747 513.963 432.611 512.64 438.158 512.64C443.79 512.64 448.611 514.048 452.622 516.864C456.633 519.68 459.321 523.477 460.686 528.256H459.278V490.112C459.278 488.405 459.705 487.125 460.558 486.272C461.497 485.333 462.819 484.864 464.526 484.864C466.147 484.864 467.385 485.333 468.238 486.272C469.177 487.125 469.646 488.405 469.646 490.112V571.52C469.646 573.227 469.219 574.549 468.366 575.488C467.513 576.427 466.233 576.896 464.526 576.896C462.905 576.896 461.625 576.427 460.686 575.488C459.833 574.549 459.406 573.227 459.406 571.52V559.36L460.814 561.152C459.449 566.016 456.718 569.899 452.622 572.8C448.611 575.701 443.79 577.152 438.158 577.152ZM440.334 568.832C444.174 568.832 447.545 567.893 450.446 566.016C453.347 564.139 455.566 561.408 457.102 557.824C458.723 554.24 459.534 549.931 459.534 544.896C459.534 537.131 457.785 531.2 454.286 527.104C450.873 523.008 446.222 520.96 440.334 520.96C436.409 520.96 432.995 521.899 430.094 523.776C427.278 525.568 425.059 528.256 423.438 531.84C421.902 535.339 421.134 539.691 421.134 544.896C421.134 552.576 422.883 558.507 426.382 562.688C429.881 566.784 434.531 568.832 440.334 568.832ZM494.223 576.64C492.516 576.64 491.236 576.171 490.383 575.232C489.53 574.208 489.103 572.8 489.103 571.008V518.656C489.103 516.864 489.53 515.499 490.383 514.56C491.236 513.621 492.516 513.152 494.223 513.152C495.844 513.152 497.124 513.621 498.063 514.56C499.002 515.499 499.471 516.864 499.471 518.656V571.008C499.471 572.8 499.002 574.208 498.063 575.232C497.21 576.171 495.93 576.64 494.223 576.64ZM494.223 498.816C492.09 498.816 490.426 498.261 489.231 497.152C488.036 495.957 487.439 494.379 487.439 492.416C487.439 490.368 488.036 488.832 489.231 487.808C490.426 486.699 492.09 486.144 494.223 486.144C496.442 486.144 498.106 486.699 499.215 487.808C500.41 488.832 501.007 490.368 501.007 492.416C501.007 494.379 500.41 495.957 499.215 497.152C498.106 498.261 496.442 498.816 494.223 498.816ZM523.973 576.896C522.266 576.896 520.986 576.427 520.133 575.488C519.28 574.549 518.853 573.227 518.853 571.52V518.144C518.853 516.437 519.28 515.157 520.133 514.304C520.986 513.365 522.224 512.896 523.845 512.896C525.466 512.896 526.704 513.365 527.557 514.304C528.496 515.157 528.965 516.437 528.965 518.144V529.152L527.557 527.616C529.349 522.667 532.25 518.955 536.261 516.48C540.357 513.92 545.05 512.64 550.341 512.64C555.29 512.64 559.386 513.536 562.629 515.328C565.957 517.12 568.432 519.851 570.053 523.52C571.674 527.104 572.485 531.669 572.485 537.216V571.52C572.485 573.227 572.016 574.549 571.077 575.488C570.224 576.427 568.986 576.896 567.365 576.896C565.658 576.896 564.336 576.427 563.397 575.488C562.544 574.549 562.117 573.227 562.117 571.52V537.856C562.117 532.053 560.965 527.829 558.661 525.184C556.442 522.453 552.858 521.088 547.909 521.088C542.192 521.088 537.626 522.88 534.213 526.464C530.885 529.963 529.221 534.656 529.221 540.544V571.52C529.221 575.104 527.472 576.896 523.973 576.896ZM619.123 600.192C614.6 600.192 610.163 599.637 605.811 598.528C601.544 597.504 597.662 595.84 594.163 593.536C593.139 592.939 592.456 592.213 592.115 591.36C591.859 590.507 591.816 589.653 591.987 588.8C592.158 588.032 592.542 587.307 593.139 586.624C593.736 586.027 594.419 585.643 595.187 585.472C596.04 585.301 596.894 585.429 597.747 585.856C601.502 588.16 605.086 589.739 608.499 590.592C611.912 591.445 615.283 591.872 618.611 591.872C624.67 591.872 629.235 590.251 632.307 587.008C635.464 583.765 637.043 579.072 637.043 572.928V558.464H638.323C637.043 563.413 634.312 567.339 630.131 570.24C626.035 573.141 621.214 574.592 615.667 574.592C609.95 574.592 605 573.312 600.819 570.752C596.638 568.107 593.395 564.437 591.091 559.744C588.872 555.051 587.763 549.632 587.763 543.488C587.763 538.88 588.403 534.699 589.683 530.944C590.963 527.104 592.798 523.861 595.187 521.216C597.662 518.485 600.606 516.395 604.019 514.944C607.518 513.408 611.4 512.64 615.667 512.64C621.299 512.64 626.163 514.091 630.259 516.992C634.355 519.808 637 523.648 638.195 528.512L636.915 530.048V518.144C636.915 516.437 637.342 515.157 638.195 514.304C639.134 513.365 640.414 512.896 642.035 512.896C643.742 512.896 645.022 513.365 645.875 514.304C646.728 515.157 647.155 516.437 647.155 518.144V571.52C647.155 580.992 644.766 588.117 639.987 592.896C635.294 597.76 628.339 600.192 619.123 600.192ZM617.587 566.144C621.598 566.144 625.054 565.248 627.955 563.456C630.856 561.579 633.075 558.933 634.611 555.52C636.232 552.107 637.043 548.096 637.043 543.488C637.043 536.576 635.294 531.115 631.795 527.104C628.296 523.008 623.56 520.96 617.587 520.96C613.662 520.96 610.248 521.899 607.347 523.776C604.446 525.568 602.184 528.171 600.563 531.584C599.027 534.912 598.259 538.88 598.259 543.488C598.259 550.4 600.008 555.904 603.507 560C607.006 564.096 611.699 566.144 617.587 566.144ZM704.723 599.936C703.016 599.936 701.736 599.467 700.883 598.528C700.03 597.675 699.603 596.395 699.603 594.688V518.144C699.603 516.437 700.03 515.157 700.883 514.304C701.736 513.365 702.974 512.896 704.595 512.896C706.302 512.896 707.582 513.365 708.435 514.304C709.374 515.157 709.843 516.437 709.843 518.144V530.304L708.435 528.512C709.8 523.648 712.488 519.808 716.499 516.992C720.595 514.091 725.459 512.64 731.091 512.64C736.638 512.64 741.459 513.963 745.555 516.608C749.736 519.168 752.936 522.88 755.155 527.744C757.459 532.523 758.611 538.24 758.611 544.896C758.611 551.467 757.459 557.184 755.155 562.048C752.936 566.827 749.779 570.539 745.683 573.184C741.587 575.829 736.723 577.152 731.091 577.152C725.459 577.152 720.638 575.744 716.627 572.928C712.616 570.027 709.886 566.187 708.435 561.408H709.971V594.688C709.971 596.395 709.502 597.675 708.563 598.528C707.624 599.467 706.344 599.936 704.723 599.936ZM728.915 568.832C732.84 568.832 736.211 567.893 739.027 566.016C741.928 564.139 744.147 561.408 745.683 557.824C747.304 554.24 748.115 549.931 748.115 544.896C748.115 537.131 746.366 531.2 742.867 527.104C739.454 523.008 734.803 520.96 728.915 520.96C725.075 520.96 721.704 521.899 718.803 523.776C715.902 525.568 713.64 528.256 712.019 531.84C710.483 535.339 709.715 539.691 709.715 544.896C709.715 552.576 711.464 558.507 714.963 562.688C718.462 566.784 723.112 568.832 728.915 568.832ZM779.476 576.896C777.769 576.896 776.447 576.427 775.508 575.488C774.655 574.549 774.228 573.227 774.228 571.52V518.144C774.228 516.437 774.655 515.157 775.508 514.304C776.361 513.365 777.599 512.896 779.22 512.896C780.841 512.896 782.079 513.365 782.932 514.304C783.871 515.157 784.34 516.437 784.34 518.144V528.512H783.06C784.425 523.477 787.028 519.595 790.868 516.864C794.708 514.133 799.444 512.683 805.076 512.512C806.356 512.427 807.38 512.725 808.148 513.408C808.916 514.005 809.343 515.072 809.428 516.608C809.513 518.059 809.172 519.211 808.404 520.064C807.636 520.917 806.441 521.429 804.82 521.6L802.772 521.856C796.969 522.368 792.489 524.245 789.332 527.488C786.26 530.645 784.724 534.997 784.724 540.544V571.52C784.724 573.227 784.255 574.549 783.316 575.488C782.463 576.427 781.183 576.896 779.476 576.896ZM842.119 577.152C837.084 577.152 832.903 576.256 829.575 574.464C826.332 572.587 823.858 569.813 822.151 566.144C820.53 562.475 819.719 557.909 819.719 552.448V518.144C819.719 516.352 820.146 515.029 820.999 514.176C821.938 513.323 823.218 512.896 824.839 512.896C826.546 512.896 827.826 513.323 828.679 514.176C829.618 515.029 830.087 516.352 830.087 518.144V552.32C830.087 557.781 831.196 561.877 833.415 564.608C835.719 567.253 839.303 568.576 844.167 568.576C849.458 568.576 853.767 566.784 857.095 563.2C860.423 559.616 862.087 554.923 862.087 549.12V518.144C862.087 516.352 862.514 515.029 863.367 514.176C864.306 513.323 865.628 512.896 867.335 512.896C868.956 512.896 870.194 513.323 871.047 514.176C871.986 515.029 872.455 516.352 872.455 518.144V571.52C872.455 575.104 870.791 576.896 867.463 576.896C865.842 576.896 864.562 576.427 863.623 575.488C862.77 574.549 862.343 573.227 862.343 571.52V559.872L864.007 561.664C862.3 566.699 859.484 570.539 855.559 573.184C851.719 575.829 847.239 577.152 842.119 577.152ZM896.973 576.896C895.266 576.896 893.986 576.427 893.133 575.488C892.28 574.549 891.853 573.227 891.853 571.52V518.144C891.853 516.437 892.28 515.157 893.133 514.304C893.986 513.365 895.224 512.896 896.845 512.896C898.466 512.896 899.704 513.365 900.557 514.304C901.496 515.157 901.965 516.437 901.965 518.144V529.152L900.557 527.616C902.349 522.667 905.25 518.955 909.261 516.48C913.357 513.92 918.05 512.64 923.341 512.64C928.29 512.64 932.386 513.536 935.629 515.328C938.957 517.12 941.432 519.851 943.053 523.52C944.674 527.104 945.485 531.669 945.485 537.216V571.52C945.485 573.227 945.016 574.549 944.077 575.488C943.224 576.427 941.986 576.896 940.365 576.896C938.658 576.896 937.336 576.427 936.397 575.488C935.544 574.549 935.117 573.227 935.117 571.52V537.856C935.117 532.053 933.965 527.829 931.661 525.184C929.442 522.453 925.858 521.088 920.909 521.088C915.192 521.088 910.626 522.88 907.213 526.464C903.885 529.963 902.221 534.656 902.221 540.544V571.52C902.221 575.104 900.472 576.896 896.973 576.896ZM992.635 577.152C986.064 577.152 980.39 575.872 975.611 573.312C970.918 570.667 967.248 566.955 964.603 562.176C962.043 557.397 960.763 551.68 960.763 545.024C960.763 538.539 962.043 532.907 964.603 528.128C967.163 523.264 970.662 519.467 975.099 516.736C979.622 514.005 984.827 512.64 990.715 512.64C994.896 512.64 998.651 513.365 1001.98 514.816C1005.31 516.181 1008.12 518.187 1010.43 520.832C1012.82 523.477 1014.61 526.677 1015.8 530.432C1017.08 534.187 1017.72 538.411 1017.72 543.104C1017.72 544.469 1017.34 545.493 1016.57 546.176C1015.8 546.773 1014.69 547.072 1013.24 547.072H968.699V540.288H1010.81L1008.76 541.952C1008.76 537.344 1008.08 533.461 1006.72 530.304C1005.35 527.061 1003.34 524.587 1000.7 522.88C998.139 521.173 994.896 520.32 990.971 520.32C986.619 520.32 982.907 521.344 979.835 523.392C976.848 525.355 974.587 528.128 973.051 531.712C971.515 535.211 970.747 539.307 970.747 544V544.768C970.747 552.619 972.624 558.592 976.379 562.688C980.219 566.784 985.638 568.832 992.635 568.832C995.536 568.832 998.395 568.448 1001.21 567.68C1004.11 566.912 1006.93 565.632 1009.66 563.84C1010.85 563.072 1011.92 562.731 1012.86 562.816C1013.88 562.816 1014.69 563.115 1015.29 563.712C1015.89 564.224 1016.27 564.907 1016.44 565.76C1016.7 566.528 1016.61 567.381 1016.19 568.32C1015.85 569.259 1015.12 570.069 1014.01 570.752C1011.2 572.8 1007.87 574.379 1004.03 575.488C1000.19 576.597 996.39 577.152 992.635 577.152ZM1056.41 577.152C1050.86 577.152 1046 575.829 1041.82 573.184C1037.72 570.539 1034.52 566.827 1032.22 562.048C1030 557.184 1028.89 551.467 1028.89 544.896C1028.89 538.24 1030 532.523 1032.22 527.744C1034.52 522.88 1037.72 519.168 1041.82 516.608C1046 513.963 1050.86 512.64 1056.41 512.64C1062.04 512.64 1066.86 514.048 1070.87 516.864C1074.88 519.68 1077.57 523.477 1078.94 528.256H1077.53V490.112C1077.53 488.405 1077.95 487.125 1078.81 486.272C1079.75 485.333 1081.07 484.864 1082.78 484.864C1084.4 484.864 1085.63 485.333 1086.49 486.272C1087.43 487.125 1087.9 488.405 1087.9 490.112V571.52C1087.9 573.227 1087.47 574.549 1086.62 575.488C1085.76 576.427 1084.48 576.896 1082.78 576.896C1081.15 576.896 1079.87 576.427 1078.94 575.488C1078.08 574.549 1077.66 573.227 1077.66 571.52V559.36L1079.06 561.152C1077.7 566.016 1074.97 569.899 1070.87 572.8C1066.86 575.701 1062.04 577.152 1056.41 577.152ZM1058.58 568.832C1062.42 568.832 1065.79 567.893 1068.7 566.016C1071.6 564.139 1073.82 561.408 1075.35 557.824C1076.97 554.24 1077.78 549.931 1077.78 544.896C1077.78 537.131 1076.03 531.2 1072.54 527.104C1069.12 523.008 1064.47 520.96 1058.58 520.96C1054.66 520.96 1051.25 521.899 1048.34 523.776C1045.53 525.568 1043.31 528.256 1041.69 531.84C1040.15 535.339 1039.38 539.691 1039.38 544.896C1039.38 552.576 1041.13 558.507 1044.63 562.688C1048.13 566.784 1052.78 568.832 1058.58 568.832ZM1163.52 576.896C1162.07 576.896 1160.79 576.512 1159.68 575.744C1158.57 574.891 1157.63 573.611 1156.87 571.904L1134.72 520.192C1134.12 518.912 1133.91 517.717 1134.08 516.608C1134.25 515.499 1134.76 514.603 1135.62 513.92C1136.47 513.237 1137.67 512.896 1139.2 512.896C1140.57 512.896 1141.63 513.195 1142.4 513.792C1143.17 514.389 1143.85 515.456 1144.45 516.992L1165.44 568.32H1161.99L1183.36 516.992C1183.96 515.456 1184.64 514.389 1185.41 513.792C1186.18 513.195 1187.29 512.896 1188.74 512.896C1190.1 512.896 1191.13 513.237 1191.81 513.92C1192.58 514.603 1193 515.499 1193.09 516.608C1193.26 517.632 1193.09 518.784 1192.58 520.064L1170.18 571.904C1169.58 573.611 1168.68 574.891 1167.49 575.744C1166.38 576.512 1165.06 576.896 1163.52 576.896ZM1233.39 577.152C1226.81 577.152 1221.14 575.872 1216.36 573.312C1211.67 570.667 1208 566.955 1205.35 562.176C1202.79 557.397 1201.51 551.68 1201.51 545.024C1201.51 538.539 1202.79 532.907 1205.35 528.128C1207.91 523.264 1211.41 519.467 1215.85 516.736C1220.37 514.005 1225.58 512.64 1231.47 512.64C1235.65 512.64 1239.4 513.365 1242.73 514.816C1246.06 516.181 1248.87 518.187 1251.18 520.832C1253.57 523.477 1255.36 526.677 1256.55 530.432C1257.83 534.187 1258.47 538.411 1258.47 543.104C1258.47 544.469 1258.09 545.493 1257.32 546.176C1256.55 546.773 1255.44 547.072 1253.99 547.072H1209.45V540.288H1251.56L1249.51 541.952C1249.51 537.344 1248.83 533.461 1247.47 530.304C1246.1 527.061 1244.09 524.587 1241.45 522.88C1238.89 521.173 1235.65 520.32 1231.72 520.32C1227.37 520.32 1223.66 521.344 1220.59 523.392C1217.6 525.355 1215.34 528.128 1213.8 531.712C1212.27 535.211 1211.5 539.307 1211.5 544V544.768C1211.5 552.619 1213.37 558.592 1217.13 562.688C1220.97 566.784 1226.39 568.832 1233.39 568.832C1236.29 568.832 1239.15 568.448 1241.96 567.68C1244.86 566.912 1247.68 565.632 1250.41 563.84C1251.6 563.072 1252.67 562.731 1253.61 562.816C1254.63 562.816 1255.44 563.115 1256.04 563.712C1256.64 564.224 1257.02 564.907 1257.19 565.76C1257.45 566.528 1257.36 567.381 1256.94 568.32C1256.6 569.259 1255.87 570.069 1254.76 570.752C1251.95 572.8 1248.62 574.379 1244.78 575.488C1240.94 576.597 1237.14 577.152 1233.39 577.152ZM1278.73 576.896C1277.02 576.896 1275.7 576.427 1274.76 575.488C1273.9 574.549 1273.48 573.227 1273.48 571.52V518.144C1273.48 516.437 1273.9 515.157 1274.76 514.304C1275.61 513.365 1276.85 512.896 1278.47 512.896C1280.09 512.896 1281.33 513.365 1282.18 514.304C1283.12 515.157 1283.59 516.437 1283.59 518.144V528.512H1282.31C1283.68 523.477 1286.28 519.595 1290.12 516.864C1293.96 514.133 1298.69 512.683 1304.33 512.512C1305.61 512.427 1306.63 512.725 1307.4 513.408C1308.17 514.005 1308.59 515.072 1308.68 516.608C1308.76 518.059 1308.42 519.211 1307.65 520.064C1306.89 520.917 1305.69 521.429 1304.07 521.6L1302.02 521.856C1296.22 522.368 1291.74 524.245 1288.58 527.488C1285.51 530.645 1283.97 534.997 1283.97 540.544V571.52C1283.97 573.227 1283.5 574.549 1282.57 575.488C1281.71 576.427 1280.43 576.896 1278.73 576.896ZM1339.72 577.152C1335.88 577.152 1332 576.683 1328.07 575.744C1324.23 574.805 1320.65 573.184 1317.32 570.88C1316.47 570.283 1315.87 569.6 1315.53 568.832C1315.19 567.979 1315.06 567.168 1315.14 566.4C1315.31 565.547 1315.66 564.821 1316.17 564.224C1316.77 563.627 1317.45 563.285 1318.22 563.2C1319.07 563.029 1320.01 563.2 1321.03 563.712C1324.36 565.76 1327.56 567.211 1330.63 568.064C1333.79 568.832 1336.9 569.216 1339.98 569.216C1344.84 569.216 1348.51 568.32 1350.98 566.528C1353.46 564.736 1354.7 562.304 1354.7 559.232C1354.7 556.843 1353.89 554.965 1352.26 553.6C1350.64 552.149 1348.08 551.04 1344.58 550.272L1332.94 547.712C1327.56 546.603 1323.55 544.683 1320.9 541.952C1318.34 539.221 1317.06 535.68 1317.06 531.328C1317.06 527.488 1318.05 524.203 1320.01 521.472C1322.06 518.656 1324.91 516.48 1328.58 514.944C1332.25 513.408 1336.52 512.64 1341.38 512.64C1345.14 512.64 1348.68 513.152 1352.01 514.176C1355.42 515.115 1358.49 516.651 1361.22 518.784C1362.08 519.381 1362.63 520.107 1362.89 520.96C1363.23 521.728 1363.27 522.539 1363.02 523.392C1362.85 524.16 1362.46 524.843 1361.86 525.44C1361.27 525.952 1360.54 526.251 1359.69 526.336C1358.83 526.421 1357.94 526.165 1357 525.568C1354.44 523.861 1351.84 522.624 1349.19 521.856C1346.55 521.003 1343.94 520.576 1341.38 520.576C1336.61 520.576 1332.98 521.515 1330.5 523.392C1328.03 525.269 1326.79 527.744 1326.79 530.816C1326.79 533.205 1327.56 535.168 1329.1 536.704C1330.63 538.24 1333.02 539.349 1336.26 540.032L1347.91 542.464C1353.46 543.659 1357.6 545.579 1360.33 548.224C1363.14 550.784 1364.55 554.283 1364.55 558.72C1364.55 564.352 1362.29 568.832 1357.77 572.16C1353.25 575.488 1347.23 577.152 1339.72 577.152ZM1385.47 576.64C1383.77 576.64 1382.49 576.171 1381.63 575.232C1380.78 574.208 1380.35 572.8 1380.35 571.008V518.656C1380.35 516.864 1380.78 515.499 1381.63 514.56C1382.49 513.621 1383.77 513.152 1385.47 513.152C1387.09 513.152 1388.37 513.621 1389.31 514.56C1390.25 515.499 1390.72 516.864 1390.72 518.656V571.008C1390.72 572.8 1390.25 574.208 1389.31 575.232C1388.46 576.171 1387.18 576.64 1385.47 576.64ZM1385.47 498.816C1383.34 498.816 1381.68 498.261 1380.48 497.152C1379.29 495.957 1378.69 494.379 1378.69 492.416C1378.69 490.368 1379.29 488.832 1380.48 487.808C1381.68 486.699 1383.34 486.144 1385.47 486.144C1387.69 486.144 1389.36 486.699 1390.47 487.808C1391.66 488.832 1392.26 490.368 1392.26 492.416C1392.26 494.379 1391.66 495.957 1390.47 497.152C1389.36 498.261 1387.69 498.816 1385.47 498.816ZM1435.96 577.152C1429.9 577.152 1424.65 575.829 1420.22 573.184C1415.78 570.539 1412.32 566.827 1409.85 562.048C1407.46 557.184 1406.26 551.467 1406.26 544.896C1406.26 539.947 1406.95 535.509 1408.31 531.584C1409.68 527.573 1411.68 524.16 1414.33 521.344C1416.97 518.528 1420.09 516.395 1423.67 514.944C1427.34 513.408 1431.44 512.64 1435.96 512.64C1442.02 512.64 1447.27 513.963 1451.7 516.608C1456.14 519.253 1459.55 523.008 1461.94 527.872C1464.42 532.651 1465.66 538.325 1465.66 544.896C1465.66 549.845 1464.97 554.283 1463.61 558.208C1462.24 562.133 1460.24 565.547 1457.59 568.448C1454.95 571.264 1451.79 573.44 1448.12 574.976C1444.54 576.427 1440.48 577.152 1435.96 577.152ZM1435.96 568.832C1439.8 568.832 1443.17 567.893 1446.07 566.016C1448.97 564.139 1451.19 561.408 1452.73 557.824C1454.35 554.24 1455.16 549.931 1455.16 544.896C1455.16 537.131 1453.41 531.2 1449.91 527.104C1446.5 523.008 1441.85 520.96 1435.96 520.96C1432.03 520.96 1428.62 521.899 1425.72 523.776C1422.9 525.568 1420.68 528.256 1419.06 531.84C1417.53 535.339 1416.76 539.691 1416.76 544.896C1416.76 552.576 1418.51 558.507 1422.01 562.688C1425.51 566.784 1430.16 568.832 1435.96 568.832ZM1486.35 576.896C1484.64 576.896 1483.36 576.427 1482.51 575.488C1481.65 574.549 1481.23 573.227 1481.23 571.52V518.144C1481.23 516.437 1481.65 515.157 1482.51 514.304C1483.36 513.365 1484.6 512.896 1486.22 512.896C1487.84 512.896 1489.08 513.365 1489.93 514.304C1490.87 515.157 1491.34 516.437 1491.34 518.144V529.152L1489.93 527.616C1491.72 522.667 1494.63 518.955 1498.64 516.48C1502.73 513.92 1507.43 512.64 1512.72 512.64C1517.67 512.64 1521.76 513.536 1525 515.328C1528.33 517.12 1530.81 519.851 1532.43 523.52C1534.05 527.104 1534.86 531.669 1534.86 537.216V571.52C1534.86 573.227 1534.39 574.549 1533.45 575.488C1532.6 576.427 1531.36 576.896 1529.74 576.896C1528.03 576.896 1526.71 576.427 1525.77 575.488C1524.92 574.549 1524.49 573.227 1524.49 571.52V537.856C1524.49 532.053 1523.34 527.829 1521.04 525.184C1518.82 522.453 1515.23 521.088 1510.28 521.088C1504.57 521.088 1500 522.88 1496.59 526.464C1493.26 529.963 1491.6 534.656 1491.6 540.544V571.52C1491.6 575.104 1489.85 576.896 1486.35 576.896ZM1574.97 577.152C1571.13 577.152 1567.25 576.683 1563.32 575.744C1559.48 574.805 1555.9 573.184 1552.57 570.88C1551.72 570.283 1551.12 569.6 1550.78 568.832C1550.44 567.979 1550.31 567.168 1550.39 566.4C1550.56 565.547 1550.91 564.821 1551.42 564.224C1552.02 563.627 1552.7 563.285 1553.47 563.2C1554.32 563.029 1555.26 563.2 1556.28 563.712C1559.61 565.76 1562.81 567.211 1565.88 568.064C1569.04 568.832 1572.15 569.216 1575.23 569.216C1580.09 569.216 1583.76 568.32 1586.23 566.528C1588.71 564.736 1589.95 562.304 1589.95 559.232C1589.95 556.843 1589.14 554.965 1587.51 553.6C1585.89 552.149 1583.33 551.04 1579.83 550.272L1568.19 547.712C1562.81 546.603 1558.8 544.683 1556.15 541.952C1553.59 539.221 1552.31 535.68 1552.31 531.328C1552.31 527.488 1553.3 524.203 1555.26 521.472C1557.31 518.656 1560.16 516.48 1563.83 514.944C1567.5 513.408 1571.77 512.64 1576.63 512.64C1580.39 512.64 1583.93 513.152 1587.26 514.176C1590.67 515.115 1593.74 516.651 1596.47 518.784C1597.33 519.381 1597.88 520.107 1598.14 520.96C1598.48 521.728 1598.52 522.539 1598.27 523.392C1598.1 524.16 1597.71 524.843 1597.11 525.44C1596.52 525.952 1595.79 526.251 1594.94 526.336C1594.08 526.421 1593.19 526.165 1592.25 525.568C1589.69 523.861 1587.09 522.624 1584.44 521.856C1581.8 521.003 1579.19 520.576 1576.63 520.576C1571.86 520.576 1568.23 521.515 1565.75 523.392C1563.28 525.269 1562.04 527.744 1562.04 530.816C1562.04 533.205 1562.81 535.168 1564.35 536.704C1565.88 538.24 1568.27 539.349 1571.51 540.032L1583.16 542.464C1588.71 543.659 1592.85 545.579 1595.58 548.224C1598.39 550.784 1599.8 554.283 1599.8 558.72C1599.8 564.352 1597.54 568.832 1593.02 572.16C1588.5 575.488 1582.48 577.152 1574.97 577.152ZM1674.46 577.152C1668.4 577.152 1663.15 575.829 1658.72 573.184C1654.28 570.539 1650.82 566.827 1648.35 562.048C1645.96 557.184 1644.76 551.467 1644.76 544.896C1644.76 539.947 1645.45 535.509 1646.81 531.584C1648.18 527.573 1650.18 524.16 1652.83 521.344C1655.47 518.528 1658.59 516.395 1662.17 514.944C1665.84 513.408 1669.94 512.64 1674.46 512.64C1680.52 512.64 1685.77 513.963 1690.2 516.608C1694.64 519.253 1698.05 523.008 1700.44 527.872C1702.92 532.651 1704.16 538.325 1704.16 544.896C1704.16 549.845 1703.47 554.283 1702.11 558.208C1700.74 562.133 1698.74 565.547 1696.09 568.448C1693.45 571.264 1690.29 573.44 1686.62 574.976C1683.04 576.427 1678.98 577.152 1674.46 577.152ZM1674.46 568.832C1678.3 568.832 1681.67 567.893 1684.57 566.016C1687.47 564.139 1689.69 561.408 1691.23 557.824C1692.85 554.24 1693.66 549.931 1693.66 544.896C1693.66 537.131 1691.91 531.2 1688.41 527.104C1685 523.008 1680.35 520.96 1674.46 520.96C1670.53 520.96 1667.12 521.899 1664.22 523.776C1661.4 525.568 1659.18 528.256 1657.56 531.84C1656.03 535.339 1655.26 539.691 1655.26 544.896C1655.26 552.576 1657.01 558.507 1660.51 562.688C1664.01 566.784 1668.66 568.832 1674.46 568.832ZM1727.55 576.896C1725.93 576.896 1724.65 576.427 1723.71 575.488C1722.86 574.549 1722.43 573.227 1722.43 571.52V521.856H1714.24C1712.87 521.856 1711.76 521.515 1710.91 520.832C1710.14 520.064 1709.76 519.04 1709.76 517.76C1709.76 516.48 1710.14 515.499 1710.91 514.816C1711.76 514.133 1712.87 513.792 1714.24 513.792H1725.25L1722.43 516.48V511.616C1722.43 503.509 1724.39 497.323 1728.32 493.056C1732.33 488.789 1738.18 486.315 1745.86 485.632L1749.57 485.248C1750.76 485.163 1751.7 485.376 1752.38 485.888C1753.15 486.4 1753.62 487.04 1753.79 487.808C1754.05 488.576 1754.09 489.387 1753.92 490.24C1753.75 491.008 1753.36 491.691 1752.77 492.288C1752.17 492.885 1751.44 493.227 1750.59 493.312L1747.65 493.568C1742.44 493.995 1738.64 495.573 1736.26 498.304C1733.95 501.035 1732.8 505.045 1732.8 510.336V515.712L1731.26 513.792H1746.62C1748.07 513.792 1749.18 514.133 1749.95 514.816C1750.72 515.499 1751.1 516.48 1751.1 517.76C1751.1 519.04 1750.72 520.064 1749.95 520.832C1749.18 521.515 1748.07 521.856 1746.62 521.856H1732.8V571.52C1732.8 575.104 1731.05 576.896 1727.55 576.896ZM1823.4 577.152C1813.07 577.152 1805.22 573.184 1799.85 565.248C1794.47 557.312 1791.78 545.835 1791.78 530.816C1791.78 520.747 1792.98 512.299 1795.37 505.472C1797.76 498.56 1801.3 493.355 1805.99 489.856C1810.77 486.357 1816.57 484.608 1823.4 484.608C1833.81 484.608 1841.66 488.533 1846.95 496.384C1852.33 504.149 1855.02 515.584 1855.02 530.688C1855.02 540.757 1853.82 549.248 1851.43 556.16C1849.04 563.072 1845.5 568.32 1840.81 571.904C1836.11 575.403 1830.31 577.152 1823.4 577.152ZM1823.4 568.064C1830.57 568.064 1835.86 565.035 1839.27 558.976C1842.77 552.832 1844.52 543.403 1844.52 530.688C1844.52 517.888 1842.77 508.544 1839.27 502.656C1835.86 496.683 1830.57 493.696 1823.4 493.696C1816.32 493.696 1811.03 496.683 1807.53 502.656C1804.03 508.629 1802.28 517.973 1802.28 530.688C1802.28 543.403 1804.03 552.832 1807.53 558.976C1811.03 565.035 1816.32 568.064 1823.4 568.064ZM1881.59 576C1880.05 576 1878.86 575.616 1878.01 574.848C1877.15 573.995 1876.73 572.843 1876.73 571.392C1876.73 569.941 1877.15 568.875 1878.01 568.192C1878.86 567.424 1880.05 567.04 1881.59 567.04H1898.23V494.464H1903.73L1885.17 506.752C1884.06 507.349 1883 507.605 1881.97 507.52C1881.04 507.435 1880.22 507.093 1879.54 506.496C1878.94 505.813 1878.52 505.045 1878.26 504.192C1878.01 503.253 1878.05 502.315 1878.39 501.376C1878.73 500.352 1879.46 499.499 1880.57 498.816L1898.23 487.168C1899.34 486.485 1900.41 485.931 1901.43 485.504C1902.45 485.077 1903.48 484.864 1904.5 484.864C1905.7 484.864 1906.68 485.248 1907.45 486.016C1908.3 486.699 1908.73 487.808 1908.73 489.344V567.04H1924.09C1925.62 567.04 1926.82 567.424 1927.67 568.192C1928.52 568.875 1928.95 569.941 1928.95 571.392C1928.95 572.928 1928.52 574.08 1927.67 574.848C1926.82 575.616 1925.62 576 1924.09 576H1881.59ZM1953.22 576.512C1951.09 576.512 1949.38 575.872 1948.1 574.592C1946.82 573.227 1946.18 571.52 1946.18 569.472C1946.18 567.424 1946.82 565.76 1948.1 564.48C1949.38 563.115 1951.09 562.432 1953.22 562.432C1955.35 562.432 1957.02 563.115 1958.21 564.48C1959.49 565.76 1960.13 567.424 1960.13 569.472C1960.13 571.52 1959.49 573.227 1958.21 574.592C1957.02 575.872 1955.35 576.512 1953.22 576.512ZM1979.34 576.896C1977.98 576.896 1976.87 576.597 1976.01 576C1975.25 575.317 1974.78 574.464 1974.61 573.44C1974.52 572.331 1974.78 571.093 1975.37 569.728L2010.57 489.6C2011.34 487.893 2012.24 486.699 2013.26 486.016C2014.37 485.248 2015.57 484.864 2016.85 484.864C2018.13 484.864 2019.28 485.248 2020.3 486.016C2021.41 486.699 2022.31 487.893 2022.99 489.6L2058.32 569.728C2059 571.093 2059.26 572.331 2059.09 573.44C2059 574.549 2058.57 575.403 2057.81 576C2057.04 576.597 2055.97 576.896 2054.61 576.896C2053.07 576.896 2051.83 576.512 2050.89 575.744C2049.95 574.891 2049.19 573.696 2048.59 572.16L2039.12 550.272L2044.24 552.96H1989.2L1994.45 550.272L1985.1 572.16C1984.33 573.781 1983.52 574.976 1982.67 575.744C1981.82 576.512 1980.71 576.896 1979.34 576.896ZM2016.72 498.048L1996.11 546.56L1993.04 544.128H2040.4L2037.58 546.56L2016.97 498.048H2016.72ZM2079.76 576.896C2078.05 576.896 2076.73 576.427 2075.79 575.488C2074.94 574.464 2074.51 573.099 2074.51 571.392V490.368C2074.51 488.576 2074.94 487.211 2075.79 486.272C2076.73 485.333 2078.05 484.864 2079.76 484.864C2081.47 484.864 2082.75 485.333 2083.6 486.272C2084.54 487.211 2085.01 488.576 2085.01 490.368V571.392C2085.01 573.099 2084.58 574.464 2083.73 575.488C2082.87 576.427 2081.55 576.896 2079.76 576.896ZM2112.12 510.976C2111.27 512.085 2110.37 512.725 2109.43 512.896C2108.5 512.981 2107.68 512.811 2107 512.384C2106.32 511.872 2105.94 511.147 2105.85 510.208C2105.85 509.269 2106.28 508.245 2107.13 507.136C2108.5 505.344 2109.43 503.552 2109.95 501.76C2110.46 499.883 2110.71 498.219 2110.71 496.768L2111.23 499.328C2109.01 499.328 2107.22 498.688 2105.85 497.408C2104.57 496.043 2103.93 494.336 2103.93 492.288C2103.93 490.155 2104.53 488.448 2105.72 487.168C2107 485.888 2108.67 485.248 2110.71 485.248C2112.93 485.248 2114.68 486.016 2115.96 487.552C2117.24 489.003 2117.88 491.136 2117.88 493.952C2117.88 495.744 2117.71 497.621 2117.37 499.584C2117.03 501.461 2116.43 503.381 2115.58 505.344C2114.72 507.307 2113.57 509.184 2112.12 510.976ZM2152.35 577.152C2148.51 577.152 2144.62 576.683 2140.7 575.744C2136.86 574.805 2133.27 573.184 2129.95 570.88C2129.09 570.283 2128.49 569.6 2128.15 568.832C2127.81 567.979 2127.68 567.168 2127.77 566.4C2127.94 565.547 2128.28 564.821 2128.79 564.224C2129.39 563.627 2130.07 563.285 2130.84 563.2C2131.69 563.029 2132.63 563.2 2133.66 563.712C2136.99 565.76 2140.19 567.211 2143.26 568.064C2146.41 568.832 2149.53 569.216 2152.6 569.216C2157.47 569.216 2161.13 568.32 2163.61 566.528C2166.08 564.736 2167.32 562.304 2167.32 559.232C2167.32 556.843 2166.51 554.965 2164.89 553.6C2163.27 552.149 2160.71 551.04 2157.21 550.272L2145.56 547.712C2140.19 546.603 2136.17 544.683 2133.53 541.952C2130.97 539.221 2129.69 535.68 2129.69 531.328C2129.69 527.488 2130.67 524.203 2132.63 521.472C2134.68 518.656 2137.54 516.48 2141.21 514.944C2144.88 513.408 2149.15 512.64 2154.01 512.64C2157.76 512.64 2161.31 513.152 2164.63 514.176C2168.05 515.115 2171.12 516.651 2173.85 518.784C2174.7 519.381 2175.26 520.107 2175.51 520.96C2175.85 521.728 2175.9 522.539 2175.64 523.392C2175.47 524.16 2175.09 524.843 2174.49 525.44C2173.89 525.952 2173.17 526.251 2172.31 526.336C2171.46 526.421 2170.56 526.165 2169.63 525.568C2167.07 523.861 2164.46 522.624 2161.82 521.856C2159.17 521.003 2156.57 520.576 2154.01 520.576C2149.23 520.576 2145.6 521.515 2143.13 523.392C2140.65 525.269 2139.42 527.744 2139.42 530.816C2139.42 533.205 2140.19 535.168 2141.72 536.704C2143.26 538.24 2145.65 539.349 2148.89 540.032L2160.54 542.464C2166.08 543.659 2170.22 545.579 2172.95 548.224C2175.77 550.784 2177.18 554.283 2177.18 558.72C2177.18 564.352 2174.92 568.832 2170.39 572.16C2165.87 575.488 2159.85 577.152 2152.35 577.152ZM2254.39 576.896C2252.69 576.896 2251.36 576.427 2250.43 575.488C2249.57 574.464 2249.15 573.056 2249.15 571.264V529.28L2251.45 536.576L2219.32 492.288C2218.55 491.179 2218.17 490.069 2218.17 488.96C2218.26 487.765 2218.72 486.784 2219.58 486.016C2220.43 485.248 2221.54 484.864 2222.91 484.864C2224.1 484.864 2225.17 485.163 2226.11 485.76C2227.04 486.272 2227.9 487.125 2228.67 488.32L2255.93 525.952H2253.24L2280.51 488.32C2281.44 487.04 2282.34 486.144 2283.19 485.632C2284.05 485.12 2285.07 484.864 2286.27 484.864C2287.63 484.864 2288.7 485.248 2289.47 486.016C2290.23 486.699 2290.62 487.637 2290.62 488.832C2290.7 489.941 2290.32 491.136 2289.47 492.416L2257.47 536.576L2259.64 529.28V571.264C2259.64 575.019 2257.89 576.896 2254.39 576.896ZM2307.35 576.64C2305.64 576.64 2304.36 576.171 2303.51 575.232C2302.65 574.208 2302.23 572.8 2302.23 571.008V518.656C2302.23 516.864 2302.65 515.499 2303.51 514.56C2304.36 513.621 2305.64 513.152 2307.35 513.152C2308.97 513.152 2310.25 513.621 2311.19 514.56C2312.13 515.499 2312.6 516.864 2312.6 518.656V571.008C2312.6 572.8 2312.13 574.208 2311.19 575.232C2310.33 576.171 2309.05 576.64 2307.35 576.64ZM2307.35 498.816C2305.21 498.816 2303.55 498.261 2302.36 497.152C2301.16 495.957 2300.56 494.379 2300.56 492.416C2300.56 490.368 2301.16 488.832 2302.36 487.808C2303.55 486.699 2305.21 486.144 2307.35 486.144C2309.57 486.144 2311.23 486.699 2312.34 487.808C2313.53 488.832 2314.13 490.368 2314.13 492.416C2314.13 494.379 2313.53 495.957 2312.34 497.152C2311.23 498.261 2309.57 498.816 2307.35 498.816ZM2370.35 576.896C2368.65 576.896 2367.37 576.427 2366.51 575.488C2365.66 574.549 2365.23 573.227 2365.23 571.52V518.144C2365.23 516.437 2365.66 515.157 2366.51 514.304C2367.37 513.365 2368.6 512.896 2370.23 512.896C2371.85 512.896 2373.08 513.365 2373.94 514.304C2374.88 515.157 2375.35 516.437 2375.35 518.144V529.408L2373.94 527.616C2375.56 522.837 2378.16 519.168 2381.75 516.608C2385.42 513.963 2389.77 512.64 2394.8 512.64C2400.09 512.64 2404.36 513.92 2407.6 516.48C2410.93 518.955 2413.15 522.837 2414.26 528.128H2412.34C2413.87 523.349 2416.6 519.595 2420.53 516.864C2424.54 514.048 2429.19 512.64 2434.48 512.64C2439.18 512.64 2443.02 513.536 2446 515.328C2449.07 517.12 2451.38 519.851 2452.91 523.52C2454.45 527.104 2455.22 531.669 2455.22 537.216V571.52C2455.22 573.227 2454.75 574.549 2453.81 575.488C2452.96 576.427 2451.68 576.896 2449.97 576.896C2448.35 576.896 2447.07 576.427 2446.13 575.488C2445.28 574.549 2444.85 573.227 2444.85 571.52V537.728C2444.85 532.011 2443.87 527.829 2441.91 525.184C2439.94 522.453 2436.62 521.088 2431.92 521.088C2426.8 521.088 2422.75 522.88 2419.76 526.464C2416.86 529.963 2415.41 534.741 2415.41 540.8V571.52C2415.41 573.227 2414.94 574.549 2414 575.488C2413.15 576.427 2411.87 576.896 2410.16 576.896C2408.54 576.896 2407.26 576.427 2406.32 575.488C2405.47 574.549 2405.04 573.227 2405.04 571.52V537.728C2405.04 532.011 2404.02 527.829 2401.97 525.184C2400.01 522.453 2396.72 521.088 2392.11 521.088C2386.99 521.088 2382.94 522.88 2379.95 526.464C2377.05 529.963 2375.6 534.741 2375.6 540.8V571.52C2375.6 575.104 2373.85 576.896 2370.35 576.896ZM2500.46 577.152C2494.4 577.152 2489.15 575.829 2484.72 573.184C2480.28 570.539 2476.82 566.827 2474.35 562.048C2471.96 557.184 2470.76 551.467 2470.76 544.896C2470.76 539.947 2471.45 535.509 2472.81 531.584C2474.18 527.573 2476.18 524.16 2478.83 521.344C2481.47 518.528 2484.59 516.395 2488.17 514.944C2491.84 513.408 2495.94 512.64 2500.46 512.64C2506.52 512.64 2511.77 513.963 2516.2 516.608C2520.64 519.253 2524.05 523.008 2526.44 527.872C2528.92 532.651 2530.16 538.325 2530.16 544.896C2530.16 549.845 2529.47 554.283 2528.11 558.208C2526.74 562.133 2524.74 565.547 2522.09 568.448C2519.45 571.264 2516.29 573.44 2512.62 574.976C2509.04 576.427 2504.98 577.152 2500.46 577.152ZM2500.46 568.832C2504.3 568.832 2507.67 567.893 2510.57 566.016C2513.47 564.139 2515.69 561.408 2517.23 557.824C2518.85 554.24 2519.66 549.931 2519.66 544.896C2519.66 537.131 2517.91 531.2 2514.41 527.104C2511 523.008 2506.35 520.96 2500.46 520.96C2496.53 520.96 2493.12 521.899 2490.22 523.776C2487.4 525.568 2485.18 528.256 2483.56 531.84C2482.03 535.339 2481.26 539.691 2481.26 544.896C2481.26 552.576 2483.01 558.507 2486.51 562.688C2490.01 566.784 2494.66 568.832 2500.46 568.832ZM2569.41 577.152C2563.86 577.152 2559 575.829 2554.82 573.184C2550.72 570.539 2547.52 566.827 2545.22 562.048C2543 557.184 2541.89 551.467 2541.89 544.896C2541.89 538.24 2543 532.523 2545.22 527.744C2547.52 522.88 2550.72 519.168 2554.82 516.608C2559 513.963 2563.86 512.64 2569.41 512.64C2575.04 512.64 2579.86 514.048 2583.87 516.864C2587.88 519.68 2590.57 523.477 2591.94 528.256H2590.53V490.112C2590.53 488.405 2590.95 487.125 2591.81 486.272C2592.75 485.333 2594.07 484.864 2595.78 484.864C2597.4 484.864 2598.63 485.333 2599.49 486.272C2600.43 487.125 2600.9 488.405 2600.9 490.112V571.52C2600.9 573.227 2600.47 574.549 2599.62 575.488C2598.76 576.427 2597.48 576.896 2595.78 576.896C2594.15 576.896 2592.87 576.427 2591.94 575.488C2591.08 574.549 2590.66 573.227 2590.66 571.52V559.36L2592.06 561.152C2590.7 566.016 2587.97 569.899 2583.87 572.8C2579.86 575.701 2575.04 577.152 2569.41 577.152ZM2571.58 568.832C2575.42 568.832 2578.79 567.893 2581.7 566.016C2584.6 564.139 2586.82 561.408 2588.35 557.824C2589.97 554.24 2590.78 549.931 2590.78 544.896C2590.78 537.131 2589.03 531.2 2585.54 527.104C2582.12 523.008 2577.47 520.96 2571.58 520.96C2567.66 520.96 2564.25 521.899 2561.34 523.776C2558.53 525.568 2556.31 528.256 2554.69 531.84C2553.15 535.339 2552.38 539.691 2552.38 544.896C2552.38 552.576 2554.13 558.507 2557.63 562.688C2561.13 566.784 2565.78 568.832 2571.58 568.832ZM2648.39 577.152C2641.81 577.152 2636.14 575.872 2631.36 573.312C2626.67 570.667 2623 566.955 2620.35 562.176C2617.79 557.397 2616.51 551.68 2616.51 545.024C2616.51 538.539 2617.79 532.907 2620.35 528.128C2622.91 523.264 2626.41 519.467 2630.85 516.736C2635.37 514.005 2640.58 512.64 2646.47 512.64C2650.65 512.64 2654.4 513.365 2657.73 514.816C2661.06 516.181 2663.87 518.187 2666.18 520.832C2668.57 523.477 2670.36 526.677 2671.55 530.432C2672.83 534.187 2673.47 538.411 2673.47 543.104C2673.47 544.469 2673.09 545.493 2672.32 546.176C2671.55 546.773 2670.44 547.072 2668.99 547.072H2624.45V540.288H2666.56L2664.51 541.952C2664.51 537.344 2663.83 533.461 2662.47 530.304C2661.1 527.061 2659.09 524.587 2656.45 522.88C2653.89 521.173 2650.65 520.32 2646.72 520.32C2642.37 520.32 2638.66 521.344 2635.59 523.392C2632.6 525.355 2630.34 528.128 2628.8 531.712C2627.27 535.211 2626.5 539.307 2626.5 544V544.768C2626.5 552.619 2628.37 558.592 2632.13 562.688C2635.97 566.784 2641.39 568.832 2648.39 568.832C2651.29 568.832 2654.15 568.448 2656.96 567.68C2659.86 566.912 2662.68 565.632 2665.41 563.84C2666.6 563.072 2667.67 562.731 2668.61 562.816C2669.63 562.816 2670.44 563.115 2671.04 563.712C2671.64 564.224 2672.02 564.907 2672.19 565.76C2672.45 566.528 2672.36 567.381 2671.94 568.32C2671.6 569.259 2670.87 570.069 2669.76 570.752C2666.95 572.8 2663.62 574.379 2659.78 575.488C2655.94 576.597 2652.14 577.152 2648.39 577.152ZM2707.42 577.152C2701.28 577.152 2696.58 575.275 2693.34 571.52C2690.1 567.765 2688.48 562.389 2688.48 555.392V490.112C2688.48 488.405 2688.9 487.125 2689.76 486.272C2690.61 485.333 2691.89 484.864 2693.6 484.864C2695.22 484.864 2696.5 485.333 2697.44 486.272C2698.38 487.125 2698.85 488.405 2698.85 490.112V554.624C2698.85 559.232 2699.74 562.688 2701.53 564.992C2703.41 567.211 2706.14 568.32 2709.73 568.32C2710.49 568.32 2711.18 568.277 2711.77 568.192C2712.37 568.107 2712.97 568.064 2713.57 568.064C2714.5 567.979 2715.14 568.192 2715.49 568.704C2715.91 569.216 2716.13 570.24 2716.13 571.776C2716.13 573.312 2715.78 574.464 2715.1 575.232C2714.42 576 2713.31 576.512 2711.77 576.768C2711.09 576.853 2710.37 576.939 2709.6 577.024C2708.83 577.109 2708.1 577.152 2707.42 577.152ZM2746.72 577.152C2742.88 577.152 2739 576.683 2735.07 575.744C2731.23 574.805 2727.65 573.184 2724.32 570.88C2723.47 570.283 2722.87 569.6 2722.53 568.832C2722.19 567.979 2722.06 567.168 2722.14 566.4C2722.31 565.547 2722.66 564.821 2723.17 564.224C2723.77 563.627 2724.45 563.285 2725.22 563.2C2726.07 563.029 2727.01 563.2 2728.03 563.712C2731.36 565.76 2734.56 567.211 2737.63 568.064C2740.79 568.832 2743.9 569.216 2746.98 569.216C2751.84 569.216 2755.51 568.32 2757.98 566.528C2760.46 564.736 2761.7 562.304 2761.7 559.232C2761.7 556.843 2760.89 554.965 2759.26 553.6C2757.64 552.149 2755.08 551.04 2751.58 550.272L2739.94 547.712C2734.56 546.603 2730.55 544.683 2727.9 541.952C2725.34 539.221 2724.06 535.68 2724.06 531.328C2724.06 527.488 2725.05 524.203 2727.01 521.472C2729.06 518.656 2731.91 516.48 2735.58 514.944C2739.25 513.408 2743.52 512.64 2748.38 512.64C2752.14 512.64 2755.68 513.152 2759.01 514.176C2762.42 515.115 2765.49 516.651 2768.22 518.784C2769.08 519.381 2769.63 520.107 2769.89 520.96C2770.23 521.728 2770.27 522.539 2770.02 523.392C2769.85 524.16 2769.46 524.843 2768.86 525.44C2768.27 525.952 2767.54 526.251 2766.69 526.336C2765.83 526.421 2764.94 526.165 2764 525.568C2761.44 523.861 2758.84 522.624 2756.19 521.856C2753.55 521.003 2750.94 520.576 2748.38 520.576C2743.61 520.576 2739.98 521.515 2737.5 523.392C2735.03 525.269 2733.79 527.744 2733.79 530.816C2733.79 533.205 2734.56 535.168 2736.1 536.704C2737.63 538.24 2740.02 539.349 2743.26 540.032L2754.91 542.464C2760.46 543.659 2764.6 545.579 2767.33 548.224C2770.14 550.784 2771.55 554.283 2771.55 558.72C2771.55 564.352 2769.29 568.832 2764.77 572.16C2760.25 575.488 2754.23 577.152 2746.72 577.152ZM2791.72 576.512C2789.59 576.512 2787.88 575.872 2786.6 574.592C2785.32 573.227 2784.68 571.52 2784.68 569.472C2784.68 567.424 2785.32 565.76 2786.6 564.48C2787.88 563.115 2789.59 562.432 2791.72 562.432C2793.85 562.432 2795.52 563.115 2796.71 564.48C2797.99 565.76 2798.63 567.424 2798.63 569.472C2798.63 571.52 2797.99 573.227 2796.71 574.592C2795.52 575.872 2793.85 576.512 2791.72 576.512Z" fill="white"/>
<path d="M2252.38 686.448C2251.57 686.448 2250.95 686.235 2250.52 685.808C2250.09 685.339 2249.88 684.677 2249.88 683.824V643.12C2249.88 642.267 2250.09 641.605 2250.52 641.136C2250.95 640.667 2251.5 640.432 2252.18 640.432C2252.87 640.432 2253.36 640.56 2253.66 640.816C2254 641.029 2254.38 641.435 2254.81 642.032L2282.71 679.216H2281.18V642.992C2281.18 642.181 2281.39 641.563 2281.82 641.136C2282.24 640.667 2282.86 640.432 2283.67 640.432C2284.44 640.432 2285.02 640.667 2285.4 641.136C2285.83 641.563 2286.04 642.181 2286.04 642.992V683.888C2286.04 684.699 2285.85 685.339 2285.46 685.808C2285.12 686.235 2284.61 686.448 2283.93 686.448C2283.29 686.448 2282.78 686.32 2282.39 686.064C2282.01 685.808 2281.6 685.403 2281.18 684.848L2253.34 647.664H2254.81V683.824C2254.81 684.677 2254.6 685.339 2254.17 685.808C2253.74 686.235 2253.14 686.448 2252.38 686.448ZM2309.48 686.576C2306.45 686.576 2303.83 685.915 2301.61 684.592C2299.39 683.269 2297.66 681.413 2296.42 679.024C2295.23 676.592 2294.63 673.733 2294.63 670.448C2294.63 667.973 2294.97 665.755 2295.66 663.792C2296.34 661.787 2297.34 660.08 2298.66 658.672C2299.99 657.264 2301.54 656.197 2303.34 655.472C2305.17 654.704 2307.22 654.32 2309.48 654.32C2312.51 654.32 2315.13 654.981 2317.35 656.304C2319.57 657.627 2321.28 659.504 2322.47 661.936C2323.71 664.325 2324.33 667.163 2324.33 670.448C2324.33 672.923 2323.99 675.141 2323.3 677.104C2322.62 679.067 2321.62 680.773 2320.3 682.224C2318.97 683.632 2317.39 684.72 2315.56 685.488C2313.77 686.213 2311.74 686.576 2309.48 686.576ZM2309.48 682.416C2311.4 682.416 2313.08 681.947 2314.54 681.008C2315.99 680.069 2317.1 678.704 2317.86 676.912C2318.67 675.12 2319.08 672.965 2319.08 670.448C2319.08 666.565 2318.2 663.6 2316.46 661.552C2314.75 659.504 2312.42 658.48 2309.48 658.48C2307.52 658.48 2305.81 658.949 2304.36 659.888C2302.95 660.784 2301.84 662.128 2301.03 663.92C2300.26 665.669 2299.88 667.845 2299.88 670.448C2299.88 674.288 2300.75 677.253 2302.5 679.344C2304.25 681.392 2306.58 682.416 2309.48 682.416ZM2344.28 686.576C2341.85 686.576 2339.8 686.149 2338.14 685.296C2336.52 684.4 2335.3 683.12 2334.49 681.456C2333.68 679.749 2333.27 677.68 2333.27 675.248V658.928H2328.99C2328.26 658.928 2327.71 658.757 2327.32 658.416C2326.94 658.032 2326.75 657.52 2326.75 656.88C2326.75 656.24 2326.94 655.749 2327.32 655.408C2327.71 655.067 2328.26 654.896 2328.99 654.896H2333.27V647.536C2333.27 646.683 2333.51 646.043 2333.98 645.616C2334.45 645.147 2335.09 644.912 2335.9 644.912C2336.71 644.912 2337.33 645.147 2337.75 645.616C2338.22 646.043 2338.46 646.683 2338.46 647.536V654.896H2346.52C2347.25 654.896 2347.8 655.067 2348.19 655.408C2348.57 655.749 2348.76 656.24 2348.76 656.88C2348.76 657.52 2348.57 658.032 2348.19 658.416C2347.8 658.757 2347.25 658.928 2346.52 658.928H2338.46V674.736C2338.46 677.168 2338.97 679.024 2339.99 680.304C2341.02 681.541 2342.68 682.16 2344.99 682.16C2345.8 682.16 2346.48 682.075 2347.03 681.904C2347.63 681.733 2348.12 681.648 2348.51 681.648C2348.89 681.605 2349.21 681.733 2349.47 682.032C2349.72 682.331 2349.85 682.843 2349.85 683.568C2349.85 684.08 2349.74 684.549 2349.53 684.976C2349.36 685.403 2349.04 685.701 2348.57 685.872C2348.06 686.043 2347.37 686.192 2346.52 686.32C2345.71 686.491 2344.96 686.576 2344.28 686.576ZM2380.47 686.576C2378.34 686.576 2376.42 686.171 2374.71 685.36C2373.04 684.507 2371.72 683.355 2370.74 681.904C2369.76 680.453 2369.27 678.832 2369.27 677.04C2369.27 674.736 2369.84 672.923 2371 671.6C2372.19 670.277 2374.13 669.339 2376.82 668.784C2379.55 668.229 2383.26 667.952 2387.96 667.952H2390.84V671.344H2388.02C2384.56 671.344 2381.83 671.515 2379.83 671.856C2377.87 672.155 2376.48 672.688 2375.67 673.456C2374.9 674.224 2374.52 675.312 2374.52 676.72C2374.52 678.469 2375.11 679.899 2376.31 681.008C2377.55 682.117 2379.21 682.672 2381.3 682.672C2383.01 682.672 2384.5 682.267 2385.78 681.456C2387.1 680.645 2388.13 679.536 2388.85 678.128C2389.62 676.72 2390 675.099 2390 673.264V665.968C2390 663.323 2389.47 661.424 2388.4 660.272C2387.34 659.077 2385.59 658.48 2383.16 658.48C2381.66 658.48 2380.17 658.672 2378.68 659.056C2377.18 659.44 2375.6 660.059 2373.94 660.912C2373.34 661.211 2372.83 661.317 2372.4 661.232C2371.98 661.104 2371.64 660.869 2371.38 660.528C2371.12 660.187 2370.98 659.803 2370.93 659.376C2370.89 658.907 2370.98 658.459 2371.19 658.032C2371.44 657.605 2371.83 657.264 2372.34 657.008C2374.22 656.069 2376.07 655.387 2377.91 654.96C2379.74 654.533 2381.49 654.32 2383.16 654.32C2385.84 654.32 2388.06 654.768 2389.81 655.664C2391.56 656.517 2392.86 657.84 2393.72 659.632C2394.57 661.381 2395 663.643 2395 666.416V683.76C2395 684.613 2394.78 685.275 2394.36 685.744C2393.97 686.213 2393.4 686.448 2392.63 686.448C2391.82 686.448 2391.2 686.213 2390.77 685.744C2390.35 685.275 2390.13 684.613 2390.13 683.76V678.768H2390.71C2390.37 680.389 2389.71 681.776 2388.72 682.928C2387.79 684.08 2386.61 684.976 2385.2 685.616C2383.8 686.256 2382.22 686.576 2380.47 686.576ZM2408.84 686.448C2408.03 686.448 2407.39 686.213 2406.92 685.744C2406.49 685.275 2406.28 684.613 2406.28 683.76V658.928H2402.18C2401.5 658.928 2400.94 658.757 2400.52 658.416C2400.13 658.032 2399.94 657.52 2399.94 656.88C2399.94 656.24 2400.13 655.749 2400.52 655.408C2400.94 655.067 2401.5 654.896 2402.18 654.896H2407.69L2406.28 656.24V653.808C2406.28 649.755 2407.26 646.661 2409.22 644.528C2411.23 642.395 2414.15 641.157 2417.99 640.816L2419.85 640.624C2420.44 640.581 2420.91 640.688 2421.25 640.944C2421.64 641.2 2421.87 641.52 2421.96 641.904C2422.09 642.288 2422.11 642.693 2422.02 643.12C2421.94 643.504 2421.74 643.845 2421.45 644.144C2421.15 644.443 2420.78 644.613 2420.36 644.656L2418.89 644.784C2416.28 644.997 2414.38 645.787 2413.19 647.152C2412.04 648.517 2411.46 650.523 2411.46 653.168V655.856L2410.69 654.896H2418.37C2419.1 654.896 2419.65 655.067 2420.04 655.408C2420.42 655.749 2420.61 656.24 2420.61 656.88C2420.61 657.52 2420.42 658.032 2420.04 658.416C2419.65 658.757 2419.1 658.928 2418.37 658.928H2411.46V683.76C2411.46 685.552 2410.59 686.448 2408.84 686.448ZM2429.15 686.448C2428.34 686.448 2427.7 686.213 2427.23 685.744C2426.8 685.275 2426.59 684.613 2426.59 683.76V658.928H2422.49C2421.81 658.928 2421.26 658.757 2420.83 658.416C2420.45 658.032 2420.25 657.52 2420.25 656.88C2420.25 656.24 2420.45 655.749 2420.83 655.408C2421.26 655.067 2421.81 654.896 2422.49 654.896H2428L2426.59 656.24V653.808C2426.59 649.797 2427.55 646.725 2429.47 644.592C2431.43 642.459 2434.31 641.243 2438.11 640.944L2440.03 640.752C2440.67 640.709 2441.18 640.816 2441.57 641.072C2441.95 641.285 2442.19 641.584 2442.27 641.968C2442.4 642.352 2442.42 642.757 2442.33 643.184C2442.25 643.611 2442.06 643.973 2441.76 644.272C2441.5 644.571 2441.18 644.741 2440.8 644.784L2438.88 644.912C2436.36 645.083 2434.55 645.872 2433.44 647.28C2432.33 648.645 2431.77 650.608 2431.77 653.168V655.856L2431.01 654.896H2448.41C2449.23 654.896 2449.84 655.131 2450.27 655.6C2450.74 656.069 2450.97 656.752 2450.97 657.648V683.504C2450.97 684.4 2450.76 685.104 2450.33 685.616C2449.91 686.085 2449.27 686.32 2448.41 686.32C2447.56 686.32 2446.9 686.085 2446.43 685.616C2446 685.104 2445.79 684.4 2445.79 683.504V658.928H2431.77V683.76C2431.77 685.552 2430.9 686.448 2429.15 686.448ZM2448.48 647.408C2447.41 647.408 2446.58 647.131 2445.98 646.576C2445.43 645.979 2445.15 645.189 2445.15 644.208C2445.15 643.184 2445.43 642.416 2445.98 641.904C2446.58 641.349 2447.41 641.072 2448.48 641.072C2449.55 641.072 2450.36 641.349 2450.91 641.904C2451.51 642.416 2451.81 643.184 2451.81 644.208C2451.81 645.189 2451.51 645.979 2450.91 646.576C2450.36 647.131 2449.55 647.408 2448.48 647.408ZM2470.15 686.576C2467.08 686.576 2464.73 685.637 2463.11 683.76C2461.49 681.883 2460.68 679.195 2460.68 675.696V643.056C2460.68 642.203 2460.89 641.563 2461.32 641.136C2461.74 640.667 2462.38 640.432 2463.24 640.432C2464.05 640.432 2464.69 640.667 2465.16 641.136C2465.63 641.563 2465.86 642.203 2465.86 643.056V675.312C2465.86 677.616 2466.31 679.344 2467.2 680.496C2468.14 681.605 2469.51 682.16 2471.3 682.16C2471.68 682.16 2472.03 682.139 2472.32 682.096C2472.62 682.053 2472.92 682.032 2473.22 682.032C2473.69 681.989 2474.01 682.096 2474.18 682.352C2474.39 682.608 2474.5 683.12 2474.5 683.888C2474.5 684.656 2474.33 685.232 2473.99 685.616C2473.65 686 2473.09 686.256 2472.32 686.384C2471.98 686.427 2471.62 686.469 2471.24 686.512C2470.85 686.555 2470.49 686.576 2470.15 686.576ZM2482.17 686.32C2481.32 686.32 2480.68 686.085 2480.25 685.616C2479.83 685.104 2479.61 684.4 2479.61 683.504V657.328C2479.61 656.432 2479.83 655.749 2480.25 655.28C2480.68 654.811 2481.32 654.576 2482.17 654.576C2482.98 654.576 2483.62 654.811 2484.09 655.28C2484.56 655.749 2484.8 656.432 2484.8 657.328V683.504C2484.8 684.4 2484.56 685.104 2484.09 685.616C2483.67 686.085 2483.03 686.32 2482.17 686.32ZM2482.17 647.408C2481.11 647.408 2480.28 647.131 2479.68 646.576C2479.08 645.979 2478.78 645.189 2478.78 644.208C2478.78 643.184 2479.08 642.416 2479.68 641.904C2480.28 641.349 2481.11 641.072 2482.17 641.072C2483.28 641.072 2484.12 641.349 2484.67 641.904C2485.27 642.416 2485.57 643.184 2485.57 644.208C2485.57 645.189 2485.27 645.979 2484.67 646.576C2484.12 647.131 2483.28 647.408 2482.17 647.408ZM2504.28 686.576C2502.15 686.576 2500.23 686.171 2498.52 685.36C2496.86 684.507 2495.53 683.355 2494.55 681.904C2493.57 680.453 2493.08 678.832 2493.08 677.04C2493.08 674.736 2493.66 672.923 2494.81 671.6C2496 670.277 2497.95 669.339 2500.63 668.784C2503.36 668.229 2507.08 667.952 2511.77 667.952H2514.65V671.344H2511.83C2508.38 671.344 2505.65 671.515 2503.64 671.856C2501.68 672.155 2500.29 672.688 2499.48 673.456C2498.71 674.224 2498.33 675.312 2498.33 676.72C2498.33 678.469 2498.93 679.899 2500.12 681.008C2501.36 682.117 2503.02 682.672 2505.11 682.672C2506.82 682.672 2508.31 682.267 2509.59 681.456C2510.92 680.645 2511.94 679.536 2512.67 678.128C2513.43 676.72 2513.82 675.099 2513.82 673.264V665.968C2513.82 663.323 2513.28 661.424 2512.22 660.272C2511.15 659.077 2509.4 658.48 2506.97 658.48C2505.48 658.48 2503.98 658.672 2502.49 659.056C2501 659.44 2499.42 660.059 2497.75 660.912C2497.16 661.211 2496.64 661.317 2496.22 661.232C2495.79 661.104 2495.45 660.869 2495.19 660.528C2494.94 660.187 2494.79 659.803 2494.75 659.376C2494.7 658.907 2494.79 658.459 2495 658.032C2495.26 657.605 2495.64 657.264 2496.15 657.008C2498.03 656.069 2499.89 655.387 2501.72 654.96C2503.56 654.533 2505.31 654.32 2506.97 654.32C2509.66 654.32 2511.88 654.768 2513.63 655.664C2515.37 656.517 2516.68 657.84 2517.53 659.632C2518.38 661.381 2518.81 663.643 2518.81 666.416V683.76C2518.81 684.613 2518.6 685.275 2518.17 685.744C2517.79 686.213 2517.21 686.448 2516.44 686.448C2515.63 686.448 2515.01 686.213 2514.59 685.744C2514.16 685.275 2513.95 684.613 2513.95 683.76V678.768H2514.52C2514.18 680.389 2513.52 681.776 2512.54 682.928C2511.6 684.08 2510.43 684.976 2509.02 685.616C2507.61 686.256 2506.03 686.576 2504.28 686.576ZM2540.91 686.576C2538.47 686.576 2536.43 686.149 2534.76 685.296C2533.14 684.4 2531.93 683.12 2531.11 681.456C2530.3 679.749 2529.9 677.68 2529.9 675.248V658.928H2525.61C2524.89 658.928 2524.33 658.757 2523.95 658.416C2523.56 658.032 2523.37 657.52 2523.37 656.88C2523.37 656.24 2523.56 655.749 2523.95 655.408C2524.33 655.067 2524.89 654.896 2525.61 654.896H2529.9V647.536C2529.9 646.683 2530.13 646.043 2530.6 645.616C2531.07 645.147 2531.71 644.912 2532.52 644.912C2533.33 644.912 2533.95 645.147 2534.38 645.616C2534.85 646.043 2535.08 646.683 2535.08 647.536V654.896H2543.15C2543.87 654.896 2544.43 655.067 2544.81 655.408C2545.19 655.749 2545.39 656.24 2545.39 656.88C2545.39 657.52 2545.19 658.032 2544.81 658.416C2544.43 658.757 2543.87 658.928 2543.15 658.928H2535.08V674.736C2535.08 677.168 2535.59 679.024 2536.62 680.304C2537.64 681.541 2539.31 682.16 2541.61 682.16C2542.42 682.16 2543.1 682.075 2543.66 681.904C2544.26 681.733 2544.75 681.648 2545.13 681.648C2545.51 681.605 2545.83 681.733 2546.09 682.032C2546.35 682.331 2546.47 682.843 2546.47 683.568C2546.47 684.08 2546.37 684.549 2546.15 684.976C2545.98 685.403 2545.66 685.701 2545.19 685.872C2544.68 686.043 2544 686.192 2543.15 686.32C2542.34 686.491 2541.59 686.576 2540.91 686.576ZM2564.51 686.576C2561.22 686.576 2558.38 685.936 2555.99 684.656C2553.65 683.333 2551.81 681.477 2550.49 679.088C2549.21 676.699 2548.57 673.84 2548.57 670.512C2548.57 667.269 2549.21 664.453 2550.49 662.064C2551.77 659.632 2553.52 657.733 2555.74 656.368C2558 655.003 2560.6 654.32 2563.55 654.32C2565.64 654.32 2567.51 654.683 2569.18 655.408C2570.84 656.091 2572.25 657.093 2573.4 658.416C2574.6 659.739 2575.49 661.339 2576.09 663.216C2576.73 665.093 2577.05 667.205 2577.05 669.552C2577.05 670.235 2576.86 670.747 2576.47 671.088C2576.09 671.387 2575.53 671.536 2574.81 671.536H2552.54V668.144H2573.59L2572.57 668.976C2572.57 666.672 2572.23 664.731 2571.55 663.152C2570.86 661.531 2569.86 660.293 2568.54 659.44C2567.26 658.587 2565.64 658.16 2563.67 658.16C2561.5 658.16 2559.64 658.672 2558.11 659.696C2556.61 660.677 2555.48 662.064 2554.71 663.856C2553.95 665.605 2553.56 667.653 2553.56 670V670.384C2553.56 674.309 2554.5 677.296 2556.38 679.344C2558.3 681.392 2561.01 682.416 2564.51 682.416C2565.96 682.416 2567.39 682.224 2568.79 681.84C2570.24 681.456 2571.65 680.816 2573.02 679.92C2573.61 679.536 2574.15 679.365 2574.62 679.408C2575.13 679.408 2575.53 679.557 2575.83 679.856C2576.13 680.112 2576.32 680.453 2576.41 680.88C2576.54 681.264 2576.49 681.691 2576.28 682.16C2576.11 682.629 2575.75 683.035 2575.19 683.376C2573.79 684.4 2572.12 685.189 2570.2 685.744C2568.28 686.299 2566.38 686.576 2564.51 686.576ZM2596.39 686.576C2593.62 686.576 2591.19 685.915 2589.1 684.592C2587.05 683.269 2585.45 681.413 2584.3 679.024C2583.19 676.592 2582.63 673.733 2582.63 670.448C2582.63 667.12 2583.19 664.261 2584.3 661.872C2585.45 659.44 2587.05 657.584 2589.1 656.304C2591.19 654.981 2593.62 654.32 2596.39 654.32C2599.21 654.32 2601.62 655.024 2603.62 656.432C2605.63 657.84 2606.97 659.739 2607.66 662.128H2606.95V643.056C2606.95 642.203 2607.16 641.563 2607.59 641.136C2608.06 640.667 2608.72 640.432 2609.58 640.432C2610.39 640.432 2611 640.667 2611.43 641.136C2611.9 641.563 2612.14 642.203 2612.14 643.056V683.76C2612.14 684.613 2611.92 685.275 2611.5 685.744C2611.07 686.213 2610.43 686.448 2609.58 686.448C2608.76 686.448 2608.12 686.213 2607.66 685.744C2607.23 685.275 2607.02 684.613 2607.02 683.76V677.68L2607.72 678.576C2607.04 681.008 2605.67 682.949 2603.62 684.4C2601.62 685.851 2599.21 686.576 2596.39 686.576ZM2597.48 682.416C2599.4 682.416 2601.08 681.947 2602.54 681.008C2603.99 680.069 2605.1 678.704 2605.86 676.912C2606.67 675.12 2607.08 672.965 2607.08 670.448C2607.08 666.565 2606.2 663.6 2604.46 661.552C2602.75 659.504 2600.42 658.48 2597.48 658.48C2595.52 658.48 2593.81 658.949 2592.36 659.888C2590.95 660.784 2589.84 662.128 2589.03 663.92C2588.26 665.669 2587.88 667.845 2587.88 670.448C2587.88 674.288 2588.75 677.253 2590.5 679.344C2592.25 681.392 2594.58 682.416 2597.48 682.416ZM2649.12 686.448C2648.39 686.448 2647.75 686.256 2647.2 685.872C2646.64 685.488 2646.19 684.869 2645.85 684.016L2636.32 658.096C2636.06 657.371 2635.97 656.731 2636.06 656.176C2636.19 655.621 2636.47 655.195 2636.89 654.896C2637.32 654.597 2637.85 654.448 2638.49 654.448C2639.13 654.448 2639.64 654.597 2640.03 654.896C2640.45 655.195 2640.8 655.749 2641.05 656.56L2650.01 682.16H2648.48L2657.69 656.56C2657.99 655.792 2658.35 655.259 2658.78 654.96C2659.25 654.619 2659.85 654.448 2660.57 654.448C2661.25 654.448 2661.83 654.619 2662.3 654.96C2662.77 655.301 2663.13 655.835 2663.39 656.56L2672.41 682.16H2670.94L2680.03 656.432C2680.33 655.664 2680.69 655.152 2681.12 654.896C2681.54 654.597 2682.05 654.448 2682.65 654.448C2683.33 654.448 2683.85 654.619 2684.19 654.96C2684.57 655.301 2684.79 655.749 2684.83 656.304C2684.87 656.859 2684.76 657.456 2684.51 658.096L2674.97 684.016C2674.67 684.827 2674.23 685.445 2673.63 685.872C2673.07 686.256 2672.43 686.448 2671.71 686.448C2670.98 686.448 2670.34 686.256 2669.79 685.872C2669.23 685.445 2668.81 684.827 2668.51 684.016L2659.04 658.032H2661.79L2652.38 684.016C2652.08 684.827 2651.65 685.445 2651.1 685.872C2650.55 686.256 2649.88 686.448 2649.12 686.448ZM2694.74 686.32C2693.88 686.32 2693.24 686.085 2692.82 685.616C2692.39 685.104 2692.18 684.4 2692.18 683.504V657.328C2692.18 656.432 2692.39 655.749 2692.82 655.28C2693.24 654.811 2693.88 654.576 2694.74 654.576C2695.55 654.576 2696.19 654.811 2696.66 655.28C2697.13 655.749 2697.36 656.432 2697.36 657.328V683.504C2697.36 684.4 2697.13 685.104 2696.66 685.616C2696.23 686.085 2695.59 686.32 2694.74 686.32ZM2694.74 647.408C2693.67 647.408 2692.84 647.131 2692.24 646.576C2691.64 645.979 2691.34 645.189 2691.34 644.208C2691.34 643.184 2691.64 642.416 2692.24 641.904C2692.84 641.349 2693.67 641.072 2694.74 641.072C2695.85 641.072 2696.68 641.349 2697.23 641.904C2697.83 642.416 2698.13 643.184 2698.13 644.208C2698.13 645.189 2697.83 645.979 2697.23 646.576C2696.68 647.131 2695.85 647.408 2694.74 647.408ZM2719.53 686.576C2717.1 686.576 2715.05 686.149 2713.39 685.296C2711.77 684.4 2710.55 683.12 2709.74 681.456C2708.93 679.749 2708.52 677.68 2708.52 675.248V658.928H2704.24C2703.51 658.928 2702.96 658.757 2702.57 658.416C2702.19 658.032 2702 657.52 2702 656.88C2702 656.24 2702.19 655.749 2702.57 655.408C2702.96 655.067 2703.51 654.896 2704.24 654.896H2708.52V647.536C2708.52 646.683 2708.76 646.043 2709.23 645.616C2709.7 645.147 2710.34 644.912 2711.15 644.912C2711.96 644.912 2712.58 645.147 2713 645.616C2713.47 646.043 2713.71 646.683 2713.71 647.536V654.896H2721.77C2722.5 654.896 2723.05 655.067 2723.44 655.408C2723.82 655.749 2724.01 656.24 2724.01 656.88C2724.01 657.52 2723.82 658.032 2723.44 658.416C2723.05 658.757 2722.5 658.928 2721.77 658.928H2713.71V674.736C2713.71 677.168 2714.22 679.024 2715.24 680.304C2716.27 681.541 2717.93 682.16 2720.24 682.16C2721.05 682.16 2721.73 682.075 2722.28 681.904C2722.88 681.733 2723.37 681.648 2723.76 681.648C2724.14 681.605 2724.46 681.733 2724.72 682.032C2724.97 682.331 2725.1 682.843 2725.1 683.568C2725.1 684.08 2724.99 684.549 2724.78 684.976C2724.61 685.403 2724.29 685.701 2723.82 685.872C2723.31 686.043 2722.62 686.192 2721.77 686.32C2720.96 686.491 2720.21 686.576 2719.53 686.576ZM2732.36 686.448C2731.51 686.448 2730.87 686.213 2730.44 685.744C2730.01 685.275 2729.8 684.613 2729.8 683.76V643.056C2729.8 642.203 2730.01 641.563 2730.44 641.136C2730.87 640.667 2731.51 640.432 2732.36 640.432C2733.17 640.432 2733.81 640.667 2734.28 641.136C2734.75 641.563 2734.99 642.203 2734.99 643.056V661.808H2734.15C2735.05 659.333 2736.5 657.477 2738.51 656.24C2740.55 654.96 2742.9 654.32 2745.55 654.32C2748.02 654.32 2750.07 654.768 2751.69 655.664C2753.35 656.56 2754.59 657.925 2755.4 659.76C2756.21 661.552 2756.62 663.835 2756.62 666.608V683.76C2756.62 684.613 2756.38 685.275 2755.91 685.744C2755.49 686.213 2754.87 686.448 2754.06 686.448C2753.2 686.448 2752.54 686.213 2752.07 685.744C2751.65 685.275 2751.43 684.613 2751.43 683.76V666.928C2751.43 664.027 2750.86 661.915 2749.71 660.592C2748.6 659.227 2746.8 658.544 2744.33 658.544C2741.47 658.544 2739.19 659.44 2737.48 661.232C2735.82 662.981 2734.99 665.328 2734.99 668.272V683.76C2734.99 685.552 2734.11 686.448 2732.36 686.448ZM2797.01 686.576C2791.85 686.576 2787.92 684.592 2785.24 680.624C2782.55 676.656 2781.2 670.917 2781.2 663.408C2781.2 658.373 2781.8 654.149 2783 650.736C2784.19 647.28 2785.96 644.677 2788.31 642.928C2790.7 641.179 2793.6 640.304 2797.01 640.304C2802.22 640.304 2806.14 642.267 2808.79 646.192C2811.48 650.075 2812.82 655.792 2812.82 663.344C2812.82 668.379 2812.22 672.624 2811.03 676.08C2809.83 679.536 2808.06 682.16 2805.72 683.952C2803.37 685.701 2800.47 686.576 2797.01 686.576ZM2797.01 682.032C2800.6 682.032 2803.24 680.517 2804.95 677.488C2806.7 674.416 2807.57 669.701 2807.57 663.344C2807.57 656.944 2806.7 652.272 2804.95 649.328C2803.24 646.341 2800.6 644.848 2797.01 644.848C2793.47 644.848 2790.83 646.341 2789.08 649.328C2787.33 652.315 2786.45 656.987 2786.45 663.344C2786.45 669.701 2787.33 674.416 2789.08 677.488C2790.83 680.517 2793.47 682.032 2797.01 682.032ZM2826.11 686C2825.34 686 2824.74 685.808 2824.32 685.424C2823.89 684.997 2823.68 684.421 2823.68 683.696C2823.68 682.971 2823.89 682.437 2824.32 682.096C2824.74 681.712 2825.34 681.52 2826.11 681.52H2834.43V645.232H2837.18L2827.9 651.376C2827.34 651.675 2826.81 651.803 2826.3 651.76C2825.83 651.717 2825.42 651.547 2825.08 651.248C2824.78 650.907 2824.57 650.523 2824.44 650.096C2824.32 649.627 2824.34 649.157 2824.51 648.688C2824.68 648.176 2825.04 647.749 2825.6 647.408L2834.43 641.584C2834.98 641.243 2835.52 640.965 2836.03 640.752C2836.54 640.539 2837.05 640.432 2837.56 640.432C2838.16 640.432 2838.65 640.624 2839.04 641.008C2839.46 641.349 2839.68 641.904 2839.68 642.672V681.52H2847.36C2848.12 681.52 2848.72 681.712 2849.15 682.096C2849.57 682.437 2849.79 682.971 2849.79 683.696C2849.79 684.464 2849.57 685.04 2849.15 685.424C2848.72 685.808 2848.12 686 2847.36 686H2826.11ZM2861.92 686.256C2860.86 686.256 2860 685.936 2859.36 685.296C2858.72 684.613 2858.4 683.76 2858.4 682.736C2858.4 681.712 2858.72 680.88 2859.36 680.24C2860 679.557 2860.86 679.216 2861.92 679.216C2862.99 679.216 2863.82 679.557 2864.42 680.24C2865.06 680.88 2865.38 681.712 2865.38 682.736C2865.38 683.76 2865.06 684.613 2864.42 685.296C2863.82 685.936 2862.99 686.256 2861.92 686.256ZM2874.98 686.448C2874.3 686.448 2873.75 686.299 2873.32 686C2872.94 685.659 2872.7 685.232 2872.62 684.72C2872.57 684.165 2872.7 683.547 2873 682.864L2890.6 642.8C2890.98 641.947 2891.43 641.349 2891.94 641.008C2892.5 640.624 2893.1 640.432 2893.74 640.432C2894.38 640.432 2894.95 640.624 2895.46 641.008C2896.02 641.349 2896.47 641.947 2896.81 642.8L2914.47 682.864C2914.81 683.547 2914.94 684.165 2914.86 684.72C2914.81 685.275 2914.6 685.701 2914.22 686C2913.83 686.299 2913.3 686.448 2912.62 686.448C2911.85 686.448 2911.23 686.256 2910.76 685.872C2910.29 685.445 2909.91 684.848 2909.61 684.08L2904.87 673.136L2907.43 674.48H2879.91L2882.54 673.136L2877.86 684.08C2877.48 684.891 2877.07 685.488 2876.65 685.872C2876.22 686.256 2875.67 686.448 2874.98 686.448ZM2893.67 647.024L2883.37 671.28L2881.83 670.064H2905.51L2904.1 671.28L2893.8 647.024H2893.67ZM2925.19 686.448C2924.34 686.448 2923.68 686.213 2923.21 685.744C2922.78 685.232 2922.57 684.549 2922.57 683.696V643.184C2922.57 642.288 2922.78 641.605 2923.21 641.136C2923.68 640.667 2924.34 640.432 2925.19 640.432C2926.05 640.432 2926.69 640.667 2927.11 641.136C2927.58 641.605 2927.82 642.288 2927.82 643.184V683.696C2927.82 684.549 2927.6 685.232 2927.18 685.744C2926.75 686.213 2926.09 686.448 2925.19 686.448ZM2940.8 686.256C2939.73 686.256 2938.88 685.936 2938.24 685.296C2937.6 684.613 2937.28 683.76 2937.28 682.736C2937.28 681.712 2937.6 680.88 2938.24 680.24C2938.88 679.557 2939.73 679.216 2940.8 679.216C2941.86 679.216 2942.7 679.557 2943.29 680.24C2943.93 680.88 2944.25 681.712 2944.25 682.736C2944.25 683.76 2943.93 684.613 2943.29 685.296C2942.7 685.936 2941.86 686.256 2940.8 686.256Z" fill="white" fill-opacity="0.5"/>
<path d="M1241.97 295.162C1241.97 286.025 1234.56 278.618 1225.43 278.618C1216.29 278.618 1208.88 286.025 1208.88 295.162V380.456C1208.88 389.593 1216.29 397 1225.43 397C1234.56 397 1241.97 389.593 1241.97 380.456V295.162Z" fill="white"/>
<path fill-rule="evenodd" clip-rule="evenodd" d="M1218.46 117.278C1211.5 111.358 1201.06 112.201 1195.14 119.161L1102.69 227.868C1100.3 230.673 1099.02 234.044 1098.79 237.456C1098.66 238.29 1098.59 239.145 1098.59 240.015V378.986C1098.59 388.123 1106 395.53 1115.13 395.53C1124.27 395.53 1131.68 388.123 1131.68 378.986V244.858L1220.35 140.599C1226.27 133.638 1225.42 123.197 1218.46 117.278Z" fill="white"/>
<path d="M1014.08 109.795C1008.28 102.728 997.861 101.696 990.794 107.489C983.728 113.281 982.696 123.706 988.489 130.772L1053.99 210.678C1059.79 217.744 1070.21 218.776 1077.28 212.984C1084.34 207.191 1085.38 196.767 1079.58 189.701L1014.08 109.795Z" fill="white"/>
<path d="M1248.22 251.412C1259.39 251.412 1268.44 242.359 1268.44 231.192C1268.44 220.024 1259.39 210.971 1248.22 210.971C1237.05 210.971 1228 220.024 1228 231.192C1228 242.359 1237.05 251.412 1248.22 251.412Z" fill="#00FF25"/>
</svg>
