<svg width="600" height="600" viewBox="0 0 600 600" fill="none" xmlns="http://www.w3.org/2000/svg">
<circle cx="300" cy="300" r="300" fill="#003425"/>
<path d="M452.147 416.846C452.147 405.141 442.659 395.653 430.954 395.653C419.249 395.653 409.761 405.141 409.761 416.846V526.108C409.761 537.812 419.249 547.301 430.954 547.301C442.659 547.301 452.147 537.812 452.147 526.108V416.846Z" fill="white"/>
<path fill-rule="evenodd" clip-rule="evenodd" d="M422.033 187.976C413.117 180.393 399.742 181.473 392.159 190.389L273.727 329.643C270.671 333.236 269.022 337.554 268.726 341.924C268.56 342.993 268.474 344.088 268.474 345.203V523.225C268.474 534.93 277.962 544.418 289.667 544.418C301.372 544.418 310.86 534.93 310.86 523.225V351.406L424.447 217.85C432.03 208.934 430.949 195.559 422.033 187.976Z" fill="white"/>
<path d="M160.215 178.39C152.795 169.338 139.442 168.015 130.39 175.436C121.338 182.856 120.015 196.21 127.436 205.262L211.348 307.622C218.769 316.673 232.122 317.996 241.174 310.575C250.226 303.155 251.548 289.802 244.128 280.75L160.215 178.39Z" fill="white"/>
<path d="M460.154 359.803C474.46 359.803 486.057 348.206 486.057 333.9C486.057 319.594 474.46 307.997 460.154 307.997C445.848 307.997 434.251 319.594 434.251 333.9C434.251 348.206 445.848 359.803 460.154 359.803Z" fill="#00FF25"/>
<path d="M149.8 143.7C148.467 143.7 147.433 143.333 146.7 142.6C146.033 141.8 145.7 140.733 145.7 139.4V76.7C145.7 75.3 146.067 74.2667 146.8 73.6C147.533 72.8667 148.567 72.5 149.9 72.5H173.6C181.133 72.5 186.933 74.3667 191 78.1C195.067 81.7667 197.1 86.9667 197.1 93.7C197.1 100.367 195.067 105.567 191 109.3C186.933 113.033 181.133 114.9 173.6 114.9H153.9V139.4C153.9 140.733 153.567 141.8 152.9 142.6C152.233 143.333 151.2 143.7 149.8 143.7ZM153.9 108H172.6C178 108 182.067 106.8 184.8 104.4C187.6 101.933 189 98.3667 189 93.7C189 88.9667 187.6 85.4 184.8 83C182.067 80.5333 178 79.3 172.6 79.3H153.9V108ZM211.005 143.7C209.671 143.7 208.638 143.333 207.905 142.6C207.238 141.867 206.905 140.833 206.905 139.5V97.8C206.905 96.4667 207.238 95.4667 207.905 94.8C208.571 94.0667 209.538 93.7 210.805 93.7C212.071 93.7 213.038 94.0667 213.705 94.8C214.438 95.4667 214.805 96.4667 214.805 97.8V105.9H213.805C214.871 101.967 216.905 98.9333 219.905 96.8C222.905 94.6667 226.605 93.5333 231.005 93.4C232.005 93.3333 232.805 93.5667 233.405 94.1C234.005 94.5667 234.338 95.4 234.405 96.6C234.471 97.7333 234.205 98.6333 233.605 99.3C233.005 99.9667 232.071 100.367 230.805 100.5L229.205 100.7C224.671 101.1 221.171 102.567 218.705 105.1C216.305 107.567 215.105 110.967 215.105 115.3V139.5C215.105 140.833 214.738 141.867 214.005 142.6C213.338 143.333 212.338 143.7 211.005 143.7ZM259.945 143.9C256.011 143.9 252.745 143.2 250.145 141.8C247.611 140.333 245.678 138.167 244.345 135.3C243.078 132.433 242.445 128.867 242.445 124.6V97.8C242.445 96.4 242.778 95.3667 243.445 94.7C244.178 94.0333 245.178 93.7 246.445 93.7C247.778 93.7 248.778 94.0333 249.445 94.7C250.178 95.3667 250.545 96.4 250.545 97.8V124.5C250.545 128.767 251.411 131.967 253.145 134.1C254.945 136.167 257.745 137.2 261.545 137.2C265.678 137.2 269.045 135.8 271.645 133C274.245 130.2 275.545 126.533 275.545 122V97.8C275.545 96.4 275.878 95.3667 276.545 94.7C277.278 94.0333 278.311 93.7 279.645 93.7C280.911 93.7 281.878 94.0333 282.545 94.7C283.278 95.3667 283.645 96.4 283.645 97.8V139.5C283.645 142.3 282.345 143.7 279.745 143.7C278.478 143.7 277.478 143.333 276.745 142.6C276.078 141.867 275.745 140.833 275.745 139.5V130.4L277.045 131.8C275.711 135.733 273.511 138.733 270.445 140.8C267.445 142.867 263.945 143.9 259.945 143.9ZM302.799 143.7C301.466 143.7 300.466 143.333 299.799 142.6C299.133 141.867 298.799 140.833 298.799 139.5V97.8C298.799 96.4667 299.133 95.4667 299.799 94.8C300.466 94.0667 301.433 93.7 302.699 93.7C303.966 93.7 304.933 94.0667 305.599 94.8C306.333 95.4667 306.699 96.4667 306.699 97.8V106.4L305.599 105.2C306.999 101.333 309.266 98.4333 312.399 96.5C315.599 94.5 319.266 93.5 323.399 93.5C327.266 93.5 330.466 94.2 332.999 95.6C335.599 97 337.533 99.1333 338.799 102C340.066 104.8 340.699 108.367 340.699 112.7V139.5C340.699 140.833 340.333 141.867 339.599 142.6C338.933 143.333 337.966 143.7 336.699 143.7C335.366 143.7 334.333 143.333 333.599 142.6C332.933 141.867 332.599 140.833 332.599 139.5V113.2C332.599 108.667 331.699 105.367 329.899 103.3C328.166 101.167 325.366 100.1 321.499 100.1C317.033 100.1 313.466 101.5 310.799 104.3C308.199 107.033 306.899 110.7 306.899 115.3V139.5C306.899 142.3 305.533 143.7 302.799 143.7ZM377.535 143.9C372.402 143.9 367.968 142.9 364.235 140.9C360.568 138.833 357.702 135.933 355.635 132.2C353.635 128.467 352.635 124 352.635 118.8C352.635 113.733 353.635 109.333 355.635 105.6C357.635 101.8 360.368 98.8333 363.835 96.7C367.368 94.5667 371.435 93.5 376.035 93.5C379.302 93.5 382.235 94.0667 384.835 95.2C387.435 96.2667 389.635 97.8333 391.435 99.9C393.302 101.967 394.702 104.467 395.635 107.4C396.635 110.333 397.135 113.633 397.135 117.3C397.135 118.367 396.835 119.167 396.235 119.7C395.635 120.167 394.768 120.4 393.635 120.4H358.835V115.1H391.735L390.135 116.4C390.135 112.8 389.602 109.767 388.535 107.3C387.468 104.767 385.902 102.833 383.835 101.5C381.835 100.167 379.302 99.5 376.235 99.5C372.835 99.5 369.935 100.3 367.535 101.9C365.202 103.433 363.435 105.6 362.235 108.4C361.035 111.133 360.435 114.333 360.435 118V118.6C360.435 124.733 361.902 129.4 364.835 132.6C367.835 135.8 372.068 137.4 377.535 137.4C379.802 137.4 382.035 137.1 384.235 136.5C386.502 135.9 388.702 134.9 390.835 133.5C391.768 132.9 392.602 132.633 393.335 132.7C394.135 132.7 394.768 132.933 395.235 133.4C395.702 133.8 396.002 134.333 396.135 135C396.335 135.6 396.268 136.267 395.935 137C395.668 137.733 395.102 138.367 394.235 138.9C392.035 140.5 389.435 141.733 386.435 142.6C383.435 143.467 380.468 143.9 377.535 143.9ZM427.358 143.9C423.024 143.9 419.224 142.867 415.958 140.8C412.758 138.733 410.258 135.833 408.458 132.1C406.724 128.3 405.858 123.833 405.858 118.7C405.858 113.5 406.724 109.033 408.458 105.3C410.258 101.5 412.758 98.6 415.958 96.6C419.224 94.5333 423.024 93.5 427.358 93.5C431.758 93.5 435.524 94.6 438.658 96.8C441.791 99 443.891 101.967 444.958 105.7H443.858V75.9C443.858 74.5667 444.191 73.5667 444.858 72.9C445.591 72.1667 446.624 71.8 447.958 71.8C449.224 71.8 450.191 72.1667 450.858 72.9C451.591 73.5667 451.958 74.5667 451.958 75.9V139.5C451.958 140.833 451.624 141.867 450.958 142.6C450.291 143.333 449.291 143.7 447.958 143.7C446.691 143.7 445.691 143.333 444.958 142.6C444.291 141.867 443.958 140.833 443.958 139.5V130L445.058 131.4C443.991 135.2 441.858 138.233 438.658 140.5C435.524 142.767 431.758 143.9 427.358 143.9ZM429.058 137.4C432.058 137.4 434.691 136.667 436.958 135.2C439.224 133.733 440.958 131.6 442.158 128.8C443.424 126 444.058 122.633 444.058 118.7C444.058 112.633 442.691 108 439.958 104.8C437.291 101.6 433.658 100 429.058 100C425.991 100 423.324 100.733 421.058 102.2C418.858 103.6 417.124 105.7 415.858 108.5C414.658 111.233 414.058 114.633 414.058 118.7C414.058 124.7 415.424 129.333 418.158 132.6C420.891 135.8 424.524 137.4 429.058 137.4Z" fill="white"/>
</svg>
