<svg width="600" height="600" viewBox="0 0 600 600" fill="none" xmlns="http://www.w3.org/2000/svg">
<rect width="600" height="600" fill="#003425"/>
<path d="M452.147 429.846C452.147 418.141 442.659 408.653 430.954 408.653C419.249 408.653 409.761 418.141 409.761 429.846V539.108C409.761 550.812 419.249 560.301 430.954 560.301C442.659 560.301 452.147 550.812 452.147 539.108V429.846Z" fill="white"/>
<path fill-rule="evenodd" clip-rule="evenodd" d="M422.033 201.976C413.117 194.393 399.742 195.473 392.159 204.389L273.727 343.643C270.671 347.236 269.022 351.554 268.726 355.924C268.56 356.993 268.474 358.088 268.474 359.203V537.225C268.474 548.93 277.962 558.418 289.667 558.418C301.372 558.418 310.86 548.93 310.86 537.225V365.406L424.447 231.85C432.03 222.934 430.949 209.559 422.033 201.976Z" fill="white"/>
<path d="M160.215 192.39C152.795 183.338 139.442 182.015 130.39 189.436C121.338 196.856 120.015 210.21 127.436 219.262L211.348 321.622C218.769 330.673 232.122 331.996 241.174 324.575C250.226 317.155 251.548 303.802 244.128 294.75L160.215 192.39Z" fill="white"/>
<path d="M460.154 373.803C474.46 373.803 486.057 362.206 486.057 347.9C486.057 333.594 474.46 321.997 460.154 321.997C445.848 321.997 434.251 333.594 434.251 347.9C434.251 362.206 445.848 373.803 460.154 373.803Z" fill="#00FF25"/>
<path d="M150.8 141.7C149.467 141.7 148.433 141.333 147.7 140.6C147.033 139.8 146.7 138.733 146.7 137.4V74.7C146.7 73.3 147.067 72.2667 147.8 71.6C148.533 70.8667 149.567 70.5 150.9 70.5H174.6C182.133 70.5 187.933 72.3667 192 76.1C196.067 79.7667 198.1 84.9667 198.1 91.7C198.1 98.3667 196.067 103.567 192 107.3C187.933 111.033 182.133 112.9 174.6 112.9H154.9V137.4C154.9 138.733 154.567 139.8 153.9 140.6C153.233 141.333 152.2 141.7 150.8 141.7ZM154.9 106H173.6C179 106 183.067 104.8 185.8 102.4C188.6 99.9333 190 96.3667 190 91.7C190 86.9667 188.6 83.4 185.8 81C183.067 78.5333 179 77.3 173.6 77.3H154.9V106ZM212.005 141.7C210.671 141.7 209.638 141.333 208.905 140.6C208.238 139.867 207.905 138.833 207.905 137.5V95.8C207.905 94.4667 208.238 93.4667 208.905 92.8C209.571 92.0667 210.538 91.7 211.805 91.7C213.071 91.7 214.038 92.0667 214.705 92.8C215.438 93.4667 215.805 94.4667 215.805 95.8V103.9H214.805C215.871 99.9667 217.905 96.9333 220.905 94.8C223.905 92.6667 227.605 91.5333 232.005 91.4C233.005 91.3333 233.805 91.5667 234.405 92.1C235.005 92.5667 235.338 93.4 235.405 94.6C235.471 95.7333 235.205 96.6333 234.605 97.3C234.005 97.9667 233.071 98.3667 231.805 98.5L230.205 98.7C225.671 99.1 222.171 100.567 219.705 103.1C217.305 105.567 216.105 108.967 216.105 113.3V137.5C216.105 138.833 215.738 139.867 215.005 140.6C214.338 141.333 213.338 141.7 212.005 141.7ZM260.945 141.9C257.011 141.9 253.745 141.2 251.145 139.8C248.611 138.333 246.678 136.167 245.345 133.3C244.078 130.433 243.445 126.867 243.445 122.6V95.8C243.445 94.4 243.778 93.3667 244.445 92.7C245.178 92.0333 246.178 91.7 247.445 91.7C248.778 91.7 249.778 92.0333 250.445 92.7C251.178 93.3667 251.545 94.4 251.545 95.8V122.5C251.545 126.767 252.411 129.967 254.145 132.1C255.945 134.167 258.745 135.2 262.545 135.2C266.678 135.2 270.045 133.8 272.645 131C275.245 128.2 276.545 124.533 276.545 120V95.8C276.545 94.4 276.878 93.3667 277.545 92.7C278.278 92.0333 279.311 91.7 280.645 91.7C281.911 91.7 282.878 92.0333 283.545 92.7C284.278 93.3667 284.645 94.4 284.645 95.8V137.5C284.645 140.3 283.345 141.7 280.745 141.7C279.478 141.7 278.478 141.333 277.745 140.6C277.078 139.867 276.745 138.833 276.745 137.5V128.4L278.045 129.8C276.711 133.733 274.511 136.733 271.445 138.8C268.445 140.867 264.945 141.9 260.945 141.9ZM303.799 141.7C302.466 141.7 301.466 141.333 300.799 140.6C300.133 139.867 299.799 138.833 299.799 137.5V95.8C299.799 94.4667 300.133 93.4667 300.799 92.8C301.466 92.0667 302.433 91.7 303.699 91.7C304.966 91.7 305.933 92.0667 306.599 92.8C307.333 93.4667 307.699 94.4667 307.699 95.8V104.4L306.599 103.2C307.999 99.3333 310.266 96.4333 313.399 94.5C316.599 92.5 320.266 91.5 324.399 91.5C328.266 91.5 331.466 92.2 333.999 93.6C336.599 95 338.533 97.1333 339.799 100C341.066 102.8 341.699 106.367 341.699 110.7V137.5C341.699 138.833 341.333 139.867 340.599 140.6C339.933 141.333 338.966 141.7 337.699 141.7C336.366 141.7 335.333 141.333 334.599 140.6C333.933 139.867 333.599 138.833 333.599 137.5V111.2C333.599 106.667 332.699 103.367 330.899 101.3C329.166 99.1667 326.366 98.1 322.499 98.1C318.033 98.1 314.466 99.5 311.799 102.3C309.199 105.033 307.899 108.7 307.899 113.3V137.5C307.899 140.3 306.533 141.7 303.799 141.7ZM378.535 141.9C373.402 141.9 368.968 140.9 365.235 138.9C361.568 136.833 358.702 133.933 356.635 130.2C354.635 126.467 353.635 122 353.635 116.8C353.635 111.733 354.635 107.333 356.635 103.6C358.635 99.8 361.368 96.8333 364.835 94.7C368.368 92.5667 372.435 91.5 377.035 91.5C380.302 91.5 383.235 92.0667 385.835 93.2C388.435 94.2667 390.635 95.8333 392.435 97.9C394.302 99.9667 395.702 102.467 396.635 105.4C397.635 108.333 398.135 111.633 398.135 115.3C398.135 116.367 397.835 117.167 397.235 117.7C396.635 118.167 395.768 118.4 394.635 118.4H359.835V113.1H392.735L391.135 114.4C391.135 110.8 390.602 107.767 389.535 105.3C388.468 102.767 386.902 100.833 384.835 99.5C382.835 98.1667 380.302 97.5 377.235 97.5C373.835 97.5 370.935 98.3 368.535 99.9C366.202 101.433 364.435 103.6 363.235 106.4C362.035 109.133 361.435 112.333 361.435 116V116.6C361.435 122.733 362.902 127.4 365.835 130.6C368.835 133.8 373.068 135.4 378.535 135.4C380.802 135.4 383.035 135.1 385.235 134.5C387.502 133.9 389.702 132.9 391.835 131.5C392.768 130.9 393.602 130.633 394.335 130.7C395.135 130.7 395.768 130.933 396.235 131.4C396.702 131.8 397.002 132.333 397.135 133C397.335 133.6 397.268 134.267 396.935 135C396.668 135.733 396.102 136.367 395.235 136.9C393.035 138.5 390.435 139.733 387.435 140.6C384.435 141.467 381.468 141.9 378.535 141.9ZM428.358 141.9C424.024 141.9 420.224 140.867 416.958 138.8C413.758 136.733 411.258 133.833 409.458 130.1C407.724 126.3 406.858 121.833 406.858 116.7C406.858 111.5 407.724 107.033 409.458 103.3C411.258 99.5 413.758 96.6 416.958 94.6C420.224 92.5333 424.024 91.5 428.358 91.5C432.758 91.5 436.524 92.6 439.658 94.8C442.791 97 444.891 99.9667 445.958 103.7H444.858V73.9C444.858 72.5667 445.191 71.5667 445.858 70.9C446.591 70.1667 447.624 69.8 448.958 69.8C450.224 69.8 451.191 70.1667 451.858 70.9C452.591 71.5667 452.958 72.5667 452.958 73.9V137.5C452.958 138.833 452.624 139.867 451.958 140.6C451.291 141.333 450.291 141.7 448.958 141.7C447.691 141.7 446.691 141.333 445.958 140.6C445.291 139.867 444.958 138.833 444.958 137.5V128L446.058 129.4C444.991 133.2 442.858 136.233 439.658 138.5C436.524 140.767 432.758 141.9 428.358 141.9ZM430.058 135.4C433.058 135.4 435.691 134.667 437.958 133.2C440.224 131.733 441.958 129.6 443.158 126.8C444.424 124 445.058 120.633 445.058 116.7C445.058 110.633 443.691 106 440.958 102.8C438.291 99.6 434.658 98 430.058 98C426.991 98 424.324 98.7333 422.058 100.2C419.858 101.6 418.124 103.7 416.858 106.5C415.658 109.233 415.058 112.633 415.058 116.7C415.058 122.7 416.424 127.333 419.158 130.6C421.891 133.8 425.524 135.4 430.058 135.4Z" fill="white"/>
</svg>
